<svg xmlns="http://www.w3.org/2000/svg" enable-background="new 0 0 512 512" viewBox="0 0 512 512" id="seashell"><g display="none"><path fill="#E5E3E3" stroke="#000" stroke-linecap="round" stroke-linejoin="round" stroke-width="16" d="
		M344,424h-96v-80h176v0C424,388.2,388.2,424,344,424z"></path><path fill="#E5E3E3" stroke="#000" stroke-linecap="round" stroke-linejoin="round" stroke-width="16" d="
		M168,424h96v-80H88v0C88,388.2,123.8,424,168,424z"></path><path fill="#E5E3E3" stroke="#000" stroke-linecap="round" stroke-linejoin="round" stroke-width="16" d="
		M224,398.9L224,398.9c-13.7-18.3-11.6-44,4.8-59.9l139.8-135.3c30.5-29.5,80-25.5,105.4,8.5l0,0c25.4,34,15.1,82.6-21.8,103.4
		l-169.4,95.6C262.8,422.6,237.7,417.3,224,398.9z"></path><path fill="#E5E3E3" stroke="#000" stroke-linecap="round" stroke-linejoin="round" stroke-width="16" d="
		M257.9,412.3L257.9,412.3c-21-9.1-32-32.3-25.7-54.3l53.7-187c11.7-40.8,56.6-62,95.6-45.2l0,0c39,16.8,54.3,64,32.7,100.5
		L315,393.7C303.3,413.4,278.9,421.3,257.9,412.3z"></path><path fill="#E5E3E3" stroke="#000" stroke-linecap="round" stroke-linejoin="round" stroke-width="16" d="
		M288,398.9L288,398.9c13.7-18.3,11.6-44-4.8-59.9L143.4,203.8c-30.5-29.5-80-25.5-105.4,8.5l0,0c-25.4,34-15.1,82.6,21.8,103.4
		l169.4,95.6C249.2,422.6,274.3,417.3,288,398.9z"></path><path fill="#E5E3E3" stroke="#000" stroke-linecap="round" stroke-linejoin="round" stroke-width="16" d="
		M254.1,412.3L254.1,412.3c21-9.1,32-32.3,25.7-54.3l-53.7-187c-11.7-40.8-56.6-62-95.6-45.2l0,0c-39,16.8-54.3,64-32.7,100.5
		L197,393.7C208.7,413.4,233.1,421.3,254.1,412.3z"></path><path fill="#E5E3E3" stroke="#000" stroke-linecap="round" stroke-linejoin="round" stroke-width="16" d="
		M256,408L256,408c-22.9,0-42.2-17-45.1-39.7l-24.7-193C180.8,133.3,213.6,96,256,96h0c42.4,0,75.2,37.3,69.8,79.4l-24.7,193
		C298.2,391,278.9,408,256,408z"></path><path fill="#E5E3E3" stroke="#000" stroke-linecap="round" stroke-linejoin="round" stroke-width="16" d="
		M320,440H192c-17.7,0-32-14.3-32-32v0c0-17.7,14.3-32,32-32h128c17.7,0,32,14.3,32,32v0C352,425.7,337.7,440,320,440z"></path></g><path d="M480.4,207.5c-12.1-16.1-29.9-26.9-49.6-30.3c-4.5-26-21.7-48.2-46.2-58.7c-21.1-9.1-45-8.4-65.4,1.5
		c-14.7-20.2-37.8-32-63.2-32c-25.4,0-48.5,11.8-63.2,32c-20.4-10-44.4-10.6-65.4-1.5c-24.5,10.6-41.7,32.7-46.2,58.7
		c-19.7,3.4-37.5,14.2-49.6,30.3C21.4,221.2,16,237.3,16,254.3c0,28.3,15.3,54.5,39.9,68.4L80,336.3c0.1,25.4,9.1,49.3,25.5,67.3
		c14.6,16.1,33.7,25.9,54.2,28c7.3,9.9,19,16.4,32.3,16.4h128c13.2,0,25-6.5,32.3-16.4c20.5-2.1,39.6-11.9,54.2-28
		c16.4-18,25.4-41.9,25.5-67.3l24.1-13.6c24.6-13.9,39.9-40.1,39.9-68.4C496,237.3,490.6,221.2,480.4,207.5z M378.3,133.1
		c21.1,9.1,35.4,28.9,37.5,51.9c0.2,1.8,0.2,3.6,0.2,5.5c0,11.1-3,22.1-8.7,31.7L320.9,368c-0.3,0-0.6,0-0.9,0h-10.8l18.5-144.6
		c0-0.1,0-0.2,0-0.3l6-46.7c0.4-3.3,0.6-6.7,0.6-10.1c0-11.2-2.4-22.3-7.1-32.4C343.3,126.4,361.9,126.1,378.3,133.1z M256,104
		c22.3,0,42.3,11.4,53.7,30.6c5.7,9.6,8.7,20.5,8.7,31.7c0,2.7-0.2,5.4-0.5,8.1l-6,47c0,0.1,0,0.2,0,0.3l-18.7,145.7
		c0,0.2-0.1,0.5-0.1,0.7H219c0-0.2-0.1-0.5-0.1-0.7l-3.5-27.2c0,0,0-0.1,0-0.1l-21.2-165.7c-1.8-13.9,1-27.7,8.2-39.7
		C213.7,115.4,233.7,104,256,104z M133.7,133.1c16.4-7.1,35-6.7,51,0.7c-6.1,13.3-8.3,27.8-6.4,42.5l21.2,165.5c0,0,0,0.1,0,0.1
		l3.3,26H192c-0.3,0-0.6,0-0.9,0l-86.4-145.8c-5.7-9.6-8.7-20.6-8.7-31.7c0-1.9,0.1-3.7,0.2-5.5C98.3,162.1,112.6,142.2,133.7,133.1
		z M32,254.3c0-13.5,4.3-26.4,12.4-37.2c8.8-11.8,21.5-20,35.7-23.4c0.5,12.9,4.3,25.5,10.9,36.7l83.4,140.8L99.6,329c0,0,0,0,0,0
		l-35.8-20.2C44.2,297.7,32,276.8,32,254.3z M117.4,392.9c-11.7-12.9-18.9-29.4-20.8-47.2l64.9,36.6c-5.9,7-9.4,15.9-9.4,25.8
		c0,2.1,0.2,4.1,0.5,6.1C139.3,410.9,127.1,403.6,117.4,392.9z M320,432H192c-13.2,0-24-10.8-24-24s10.8-24,24-24h20.5
		c0,0,0.1,0,0.1,0h86.8c0,0,0,0,0,0c0,0,0,0,0,0H320c13.2,0,24,10.8,24,24S333.2,432,320,432z M394.7,392.8
		c-9.8,10.7-21.9,18-35.1,21.3c0.3-2,0.5-4,0.5-6.1c0-9.8-3.5-18.8-9.4-25.8l64.9-36.6C413.6,363.5,406.3,380,394.7,392.8z
		 M448.3,308.7L412.4,329c0,0,0,0-0.1,0l-74.8,42.2L421,230.4c6.6-11.2,10.4-23.8,10.9-36.7c14.2,3.4,26.8,11.6,35.7,23.4
		c8.1,10.9,12.4,23.8,12.4,37.2C480,276.8,467.8,297.7,448.3,308.7z" display="none"></path><g display="none"><path d="M99.6 329l74.8 42.2L91 230.4c-6.6-11.2-10.4-23.8-10.9-36.7-14.2 3.4-26.8 11.6-35.7 23.4C36.3 227.9 32 240.8 32 254.3c0 22.5 12.2 43.4 31.7 54.4L99.6 329C99.6 329 99.6 329 99.6 329zM333.8 176.4l-6 46.7c0 .1 0 .2 0 .3L309.2 368H320c.3 0 .6 0 .9 0l86.4-145.8c5.7-9.6 8.7-20.6 8.7-31.7 0-1.9-.1-3.7-.2-5.5-2-22.9-16.4-42.8-37.5-51.9-16.4-7.1-35-6.7-51 .7 4.7 10.2 7.1 21.2 7.1 32.4C334.4 169.6 334.2 173 333.8 176.4zM215.3 340c0 0 0 .1 0 .1l3.5 27.2c0 .2.1.5.1.7H293c0-.2.1-.5.1-.7l18.7-145.7c0-.1 0-.2 0-.3l6-47c.3-2.7.5-5.4.5-8.1 0-11.1-3-22.1-8.7-31.7C298.3 115.4 278.3 104 256 104s-42.3 11.4-53.7 30.6c-7.2 12-10 25.8-8.2 39.7L215.3 340zM191.1 368c.3 0 .6 0 .9 0h10.8l-3.3-26c0 0 0-.1 0-.1l-21.2-165.5c-1.9-14.7.3-29.3 6.4-42.5-16-7.4-34.6-7.8-51-.7-21.1 9.1-35.4 28.9-37.5 51.8-.2 1.8-.2 3.7-.2 5.5 0 11.1 3 22.1 8.7 31.7L191.1 368zM360 408c0 2.1-.2 4.1-.5 6.1 13.2-3.2 25.4-10.5 35.1-21.3 11.7-12.9 18.9-29.4 20.8-47.2l-64.9 36.6C356.5 389.2 360 398.2 360 408zM96.5 345.6c1.9 17.9 9.1 34.4 20.8 47.2 9.8 10.7 21.9 18 35.1 21.3-.3-2-.5-4-.5-6.1 0-9.8 3.5-18.8 9.4-25.8L96.5 345.6zM467.6 217.1c-8.8-11.8-21.5-20-35.7-23.4-.5 12.9-4.3 25.5-10.9 36.7l-83.4 140.8 74.8-42.2c0 0 0 0 .1 0l35.8-20.2c19.6-11 31.7-31.9 31.7-54.4C480 240.8 475.7 227.9 467.6 217.1zM320 384h-20.5c0 0 0 0 0 0 0 0 0 0 0 0h-86.8c0 0-.1 0-.1 0H192c-13.2 0-24 10.8-24 24s10.8 24 24 24h128c13.2 0 24-10.8 24-24S333.2 384 320 384z"></path></g><path fill="#A44D3E" d="M336.4,424H248v-96h176v8.4C424,384.8,384.8,424,336.4,424z"></path><path fill="#A44D3E" d="M175.6,424H264v-96H88v8.4C88,384.8,127.2,424,175.6,424z"></path><path fill="#F7C37B" d="M224,398.9L224,398.9c-13.7-18.3-11.6-44,4.8-59.9l139.8-135.3c30.5-29.5,80-25.5,105.4,8.5l0,0
		c25.4,34,15.1,82.6-21.8,103.4l-169.4,95.6C262.8,422.6,237.7,417.3,224,398.9z"></path><path fill="#FF926B" d="M257.9,412.3L257.9,412.3c-21-9.1-32-32.3-25.7-54.3l53.7-187c11.7-40.8,56.6-62,95.6-45.2l0,0
		c39,16.8,54.3,64,32.7,100.5L315,393.7C303.3,413.4,278.9,421.3,257.9,412.3z"></path><path fill="#F7C37B" d="M288,398.9L288,398.9c13.7-18.3,11.6-44-4.8-59.9L143.4,203.8c-30.5-29.5-80-25.5-105.4,8.5l0,0
		c-25.4,34-15.1,82.6,21.8,103.4l169.4,95.6C249.2,422.6,274.3,417.3,288,398.9z"></path><path fill="#FF926B" d="M254.1,412.3L254.1,412.3c21-9.1,32-32.3,25.7-54.3l-53.7-187c-11.7-40.8-56.6-62-95.6-45.2l0,0
		c-39,16.8-54.3,64-32.7,100.5L197,393.7C208.7,413.4,233.1,421.3,254.1,412.3z"></path><path fill="#F7C37B" d="M256,408L256,408c-22.9,0-42.2-17-45.1-39.7l-24.7-193C180.8,133.3,213.6,96,256,96h0
		c42.4,0,75.2,37.3,69.8,79.4l-24.7,193C298.2,391,278.9,408,256,408z"></path><path fill="#CD604E" d="M320,440H192c-17.7,0-32-14.3-32-32v0c0-17.7,14.3-32,32-32h128c17.7,0,32,14.3,32,32v0
		C352,425.7,337.7,440,320,440z"></path><g display="none"><path fill="#A44D3E" d="M336.4,424H248v-96h176v8.4C424,384.8,384.8,424,336.4,424z"></path><path fill="#A44D3E" d="M175.6,424H264v-96H88v8.4C88,384.8,127.2,424,175.6,424z"></path><path fill="#F7C37B" d="M224,398.9L224,398.9c-13.7-18.3-11.6-44,4.8-59.9l139.8-135.3
		c30.5-29.5,80-25.5,105.4,8.5l0,0c25.4,34,15.1,82.6-21.8,103.4l-169.4,95.6C262.8,422.6,237.7,417.3,224,398.9z"></path><path fill="#FF926B" d="M257.9,412.3L257.9,412.3c-21-9.1-32-32.3-25.7-54.3l53.7-187
		c11.7-40.8,56.6-62,95.6-45.2l0,0c39,16.8,54.3,64,32.7,100.5L315,393.7C303.3,413.4,278.9,421.3,257.9,412.3z"></path><path fill="#F7C37B" d="M288,398.9L288,398.9c13.7-18.3,11.6-44-4.8-59.9L143.4,203.8
		c-30.5-29.5-80-25.5-105.4,8.5l0,0c-25.4,34-15.1,82.6,21.8,103.4l169.4,95.6C249.2,422.6,274.3,417.3,288,398.9z"></path><path fill="#FF926B" d="M254.1,412.3L254.1,412.3c21-9.1,32-32.3,25.7-54.3l-53.7-187
		c-11.7-40.8-56.6-62-95.6-45.2l0,0c-39,16.8-54.3,64-32.7,100.5L197,393.7C208.7,413.4,233.1,421.3,254.1,412.3z"></path><path fill="#F7C37B" d="M256,408L256,408c-22.9,0-42.2-17-45.1-39.7l-24.7-193C180.8,133.3,213.6,96,256,96h0
		c42.4,0,75.2,37.3,69.8,79.4l-24.7,193C298.2,391,278.9,408,256,408z"></path><path fill="#CD604E" d="M320,440H192c-17.7,0-32-14.3-32-32v0c0-17.7,14.3-32,32-32h128c17.7,0,32,14.3,32,32v0
		C352,425.7,337.7,440,320,440z"></path><path d="M480.4,207.5c-12.1-16.1-29.9-26.9-49.6-30.3c-4.5-26-21.7-48.2-46.2-58.7c-21.1-9.1-45-8.4-65.4,1.5
		c-14.7-20.2-37.8-32-63.2-32c-25.4,0-48.5,11.8-63.2,32c-20.4-10-44.4-10.6-65.4-1.5c-24.5,10.6-41.7,32.7-46.2,58.7
		c-19.7,3.4-37.5,14.2-49.6,30.3C21.4,221.2,16,237.3,16,254.3c0,28.3,15.3,54.5,39.9,68.4L80,336.3c0.1,25.4,9.1,49.3,25.5,67.3
		c14.6,16.1,33.7,25.9,54.2,28c7.3,9.9,19,16.4,32.3,16.4h128c13.2,0,25-6.5,32.3-16.4c20.5-2.1,39.6-11.9,54.2-28
		c16.4-18,25.4-41.9,25.5-67.3l24.1-13.6c24.6-13.9,39.9-40.1,39.9-68.4C496,237.3,490.6,221.2,480.4,207.5z M378.3,133.1
		c21.1,9.1,35.4,28.9,37.5,51.9c0.2,1.8,0.2,3.6,0.2,5.5c0,11.1-3,22.1-8.7,31.7L320.9,368c-0.3,0-0.6,0-0.9,0h-10.8l18.5-144.6
		c0-0.1,0-0.2,0-0.3l6-46.7c0.4-3.3,0.6-6.7,0.6-10.1c0-11.2-2.4-22.3-7.1-32.4C343.3,126.4,361.9,126.1,378.3,133.1z M256,104
		c22.3,0,42.3,11.4,53.7,30.6c5.7,9.6,8.7,20.5,8.7,31.7c0,2.7-0.2,5.4-0.5,8.1l-6,47c0,0.1,0,0.2,0,0.3l-18.7,145.7
		c0,0.2-0.1,0.5-0.1,0.7H219c0-0.2-0.1-0.5-0.1-0.7l-3.5-27.2c0,0,0-0.1,0-0.1l-21.2-165.7c-1.8-13.9,1-27.7,8.2-39.7
		C213.7,115.4,233.7,104,256,104z M133.7,133.1c16.4-7.1,35-6.7,51,0.7c-6.1,13.3-8.3,27.8-6.4,42.5l21.2,165.5c0,0,0,0.1,0,0.1
		l3.3,26H192c-0.3,0-0.6,0-0.9,0l-86.4-145.8c-5.7-9.6-8.7-20.6-8.7-31.7c0-1.9,0.1-3.7,0.2-5.5C98.3,162.1,112.6,142.2,133.7,133.1
		z M32,254.3c0-13.5,4.3-26.4,12.4-37.2c8.8-11.8,21.5-20,35.7-23.4c0.5,12.9,4.3,25.5,10.9,36.7l83.4,140.8L99.6,329c0,0,0,0,0,0
		l-35.8-20.2C44.2,297.7,32,276.8,32,254.3z M117.4,392.9c-11.7-12.9-18.9-29.4-20.8-47.2l64.9,36.6c-5.9,7-9.4,15.9-9.4,25.8
		c0,2.1,0.2,4.1,0.5,6.1C139.3,410.9,127.1,403.6,117.4,392.9z M320,432H192c-13.2,0-24-10.8-24-24s10.8-24,24-24h20.5
		c0,0,0.1,0,0.1,0h86.8c0,0,0,0,0,0c0,0,0,0,0,0H320c13.2,0,24,10.8,24,24S333.2,432,320,432z M394.7,392.8
		c-9.8,10.7-21.9,18-35.1,21.3c0.3-2,0.5-4,0.5-6.1c0-9.8-3.5-18.8-9.4-25.8l64.9-36.6C413.6,363.5,406.3,380,394.7,392.8z
		 M448.3,308.7L412.4,329c0,0,0,0-0.1,0l-74.8,42.2L421,230.4c6.6-11.2,10.4-23.8,10.9-36.7c14.2,3.4,26.8,11.6,35.7,23.4
		c8.1,10.9,12.4,23.8,12.4,37.2C480,276.8,467.8,297.7,448.3,308.7z"></path></g></svg>