<?xml version="1.0" ?><svg xmlns="http://www.w3.org/2000/svg" viewBox="0 0 512 512"><defs><style>.cls-1{fill:#f5a871;}.cls-2{fill:#afd755;}.cls-3{fill:#98b548;}.cls-4{fill:#c98758;}.cls-5{fill:#d38d5e;}.cls-6{fill:#aa714b;}</style></defs><title/><g id="palm_tree" data-name="palm tree"><path class="cls-1" d="M286.07,512H237.83c-1.74-3.15-3.27-6.39-4.8-9.63a215.114,215.114,0,0,1-14.61-42.56q-2.355-9.87-4.34-19.81-2.415-12.105-4.19-24.31c-.57-3.7-.97-7.42-1.47-11.12l-.67-5.57-.52-5.58c-.32-3.72-.71-7.43-.98-11.16l-.69-11.17c-.22-3.72-.26-7.45-.4-11.17l-.16-5.58-.03-5.59c-.06-7.44.17-14.88.4-22.31q.93-22.275,3.91-44.33c2.03-14.69,4.61-29.28,8.09-43.7.86-3.6,1.75-7.2,2.74-10.78.93-3.59,1.98-7.17,3.04-10.73s2.23-7.12,3.45-10.68c.62-1.77,1.23-3.55,1.89-5.35.31-.89.67-1.8,1.02-2.7l1.13-2.91,31.42,9.53-.67,4.67c-.25,1.64-.48,3.31-.7,4.98l-1.24,10.12q-1.14,10.155-2.01,20.38-.465,5.52-.82,11.06-.585,8.49-.93,17-.285,6.435-.42,12.85V286c-.17,5.67-.2,11.34-.2,17,0,1.09.01,2.18.01,3.28l.12,10.2.31,10.18q.18,4.17.37,8.34c.19,4,.42,7.98.73,11.97l.32,5.03v.03l.44,5.06c.32,3.36.53,6.74.93,10.09.12,1.27.25,2.55.39,3.82q.885,8.52,2.1,17c.7,5.01,1.46,10.01,2.25,15,.22,1.42.44,2.83.67,4.25l1.6,8.75.21,1.17c.28,1.66.6,3.31.97,4.95l1.03,4.93c.82,4.34,1.81,8.65,2.83,12.95.53,2.23,1.07,4.46,1.59,6.69.21.77.41,1.54.61,2.31q1.71,6.48,3.3,13c1.93,7.91,3.75,15.86,5.51,23.89.35,1.65.69,3.32.99,4.99s.6,3.36.98,5.02c.67,3.34,1.3,6.72,1.83,10.14C285.45,508.03,285.76,510.01,286.07,512Z"/><path class="cls-2" d="M68,93l-7,17c50.887-1.64,82,17.092,117.473,31.337L166,105"/><path class="cls-2" d="M446,146l4,19c-46.7-13.563-92.46-10.436-138.06-4.573"/><path class="cls-3" d="M288,114c25.125-29.942,49.433-52.565,73-59L341,38"/><path class="cls-3" d="M126,261.329,143.341,269s26.391-53.193,47.335-67.35l-9.4-2.65"/><path class="cls-3" d="M384,256l-16,16s-52-58-94-78l13-4"/><path class="cls-3" d="M201,168.8c.749-3.89,112.245,22.71,220,133.2,0,0,11.207-110.627-175.837-168"/><path class="cls-3" d="M253,173.086C249.616,158.3,170.976,188.87,107.233,318c-1.928-7.3,5.607-165.877,119.546-161.927"/><path class="cls-3" d="M256.473,171.487C259.631,156.9,329.34,23.413,410.232,30.233c-7.725-8.749-111.884-110.01-164.508,115.032"/><path class="cls-2" d="M254.558,152.285c5.887-12.5,191.635-141.444,257.442,1.76-15.532-10.88-234.327-.662-260.814,23.6"/><path class="cls-2" d="M220.353,171.19S102.894,69.8,0,103.705C26.263,27.381,277.231,53.6,254.293,159.2L248.437,187.8"/><ellipse class="cls-4" cx="225.937" cy="191.384" rx="21.427" ry="21.415"/><ellipse class="cls-5" cx="246.985" cy="213.444" rx="17.75" ry="17.74"/><ellipse class="cls-6" cx="256.071" cy="184.679" rx="19.695" ry="19.683"/><path class="cls-5" d="M275.85,462H253.5a6.5,6.5,0,1,1,0-13h19.05Q274.26,455.48,275.85,462Z"/><path class="cls-5" d="M265.31,416H240.5a6.5,6.5,0,1,1,0-13h22.54c.22,1.42.44,2.83.67,4.25Z"/><path class="cls-5" d="M256.93,352H247.5a8.5,8.5,0,0,1,0-17h8.38c.19,4,.42,7.98.73,11.97Z"/><path class="cls-5" d="M256.62,256q-.585,8.49-.93,17H237.5a8.5,8.5,0,0,1,0-17Z"/><path class="cls-5" d="M260.79,388H258.5a8.5,8.5,0,0,1,0-17h.19Q259.575,379.52,260.79,388Z"/><path class="cls-5" d="M255.27,286c-.17,5.67-.2,11.34-.2,17H247.5a8.5,8.5,0,0,1,0-17Z"/></g></svg>