<?xml version="1.0" ?><svg viewBox="0 0 64 64" xmlns="http://www.w3.org/2000/svg"><defs><style>.cls-1{fill:#e29375;}.cls-2{fill:#e7a990;}.cls-3{fill:#544f56;}.cls-4{fill:#f7f8fa;}.cls-5{fill:#e7ecf0;}</style></defs><g id="Seahorse"><path class="cls-1" d="M26.45,35.17c-1.48,1.3-4.29,3.77-6.05,3.77-3,0-3.91-2.42-3.91-5.42s.91-5.41,3.91-5.41c1.79,0,4.62,2.52,6.11,3.81,0,0,1.74.42,1.58.82S26.45,35.17,26.45,35.17Z" id="path193137-4"/><path class="cls-2" d="M30.94,9c-3.44,0-6.56,1.1-8.44,5.21-2.21,4.86.75,9.93,2.63,13.4A12,12,0,0,1,23.7,41.14C19.4,45.44,20.21,57,29.5,57c8.81,0,8-12.71-.36-12.08a12.25,12.25,0,0,0,9.77-11.58c0-3.93-1.41-7.78-6.6-9.85a7.14,7.14,0,0,0,2.89-1.24l8.6,1.58a1,1,0,0,0,1.12-.65l.49-1.39a1.65,1.65,0,0,0-1.21-2.17l-.45-.14A26.91,26.91,0,0,1,39.66,17a5.56,5.56,0,0,1-1.72-2.72A7.3,7.3,0,0,0,30.94,9Z" id="path179089-4"/><path class="cls-3" d="M32.4,14.34a2,2,0,1,1-2-2.05A2.05,2.05,0,0,1,32.4,14.34Z" id="path192675-1"/><path class="cls-1" d="M30.94,9a13,13,0,0,0-1.41.08,7.29,7.29,0,0,1,6,5.15A5.42,5.42,0,0,0,37.24,17a26.48,26.48,0,0,0,4.08,2.53l.45.14A1.65,1.65,0,0,1,43,21.79l-.49,1.39a1,1,0,0,1-.23.37l1.54.28a1,1,0,0,0,1.12-.65l.49-1.39a1.65,1.65,0,0,0-1.21-2.17l-.45-.14A26.91,26.91,0,0,1,39.66,17a5.56,5.56,0,0,1-1.72-2.72A7.3,7.3,0,0,0,30.94,9Z" id="path195992"/><path class="cls-4" d="M32.31,23.49l-1.07,1.89a4.25,4.25,0,0,0,.06,3.7c1.47,2.92,3.28,9-2.16,15.84a12.25,12.25,0,0,0,9.77-11.58C38.9,29.41,37.5,25.56,32.31,23.49Z" id="path187530-3"/><path class="cls-5" d="M32.31,23.49l-.53.93c3.64,2.18,4.69,5.52,4.7,8.92a12,12,0,0,1-6.41,10.32q-.43.63-.93,1.26a12.25,12.25,0,0,0,9.77-11.58C38.9,29.41,37.5,25.56,32.31,23.49Z" id="path196016"/><path d="M30.35,17.39a3.05,3.05,0,1,0-3.05-3.05A3.06,3.06,0,0,0,30.35,17.39Zm0-4.1a1.05,1.05,0,1,1-1.05,1.05A1,1,0,0,1,30.35,13.29Z"/><path d="M15.49,33.53c0,5.58,3.08,6.41,4.91,6.41a7.6,7.6,0,0,0,4.05-1.83A10.61,10.61,0,0,1,23,40.44a8,8,0,0,0-1,1.32l-1.38-.28a1,1,0,1,0-.41,2l.87.18a12.35,12.35,0,0,0-.81,3.94l-.7.08a1,1,0,0,0,.11,2h.12l.55-.07a12,12,0,0,0,.75,3c.08.18.17.34.26.51l-.56.41a1,1,0,0,0-.19,1.4,1,1,0,0,0,.8.4,1,1,0,0,0,.6-.2l.39-.29A8.72,8.72,0,0,0,29.5,58a6.87,6.87,0,0,0,6.4-3.49A7.56,7.56,0,0,0,35.58,47a6.55,6.55,0,0,0-2.69-2.38,13.25,13.25,0,0,0,7-11.25c0-4-1.52-7.52-5.06-9.7l.57-.33,8.2,1.5a2,2,0,0,0,2.25-1.3l.48-1.39A2.59,2.59,0,0,0,46.22,20a2.79,2.79,0,0,0-1.75-1.38L44,18.53a24.63,24.63,0,0,1-3.81-2.4A4.62,4.62,0,0,1,38.9,14a8.35,8.35,0,0,0-8-5.95h0c-3.68,0-6.37,1.29-8.21,3.86l-1.25-.67A1,1,0,0,0,20.54,13l1.17.62-.12.22a9.38,9.38,0,0,0-.81,3l-1.16-.12a1,1,0,0,0-1.11.88,1,1,0,0,0,.89,1.1l1.36.15c.28,3.36,2,6.51,3.26,8.85l.23.41a11.84,11.84,0,0,1,.5,1.09c-1.53-1.16-3.06-2.06-4.35-2.06C18.57,27.11,15.49,27.94,15.49,33.53Zm20.08-6.79-.88.34A1,1,0,0,0,35.05,29a1.13,1.13,0,0,0,.36-.06l1.37-.53a8.48,8.48,0,0,1,.8,2.08l-1.22.23a1,1,0,1,0,.37,2l1.13-.22c0,.29,0,.56,0,.86a9.35,9.35,0,0,1-.14,1.4l-1.16-.2a1,1,0,0,0-1.16.81,1,1,0,0,0,.81,1.15l1,.19a11.42,11.42,0,0,1-.89,1.91l-.63-.31a1,1,0,0,0-1.34.45,1,1,0,0,0,.44,1.34l.32.15a11.84,11.84,0,0,1-3.47,2.67,14.62,14.62,0,0,0,.47-14.28,3.28,3.28,0,0,1-.09-2.75l.62-1.08A9.38,9.38,0,0,1,35.57,26.74ZM23.41,14.63C24.87,11.44,27.19,10,30.94,10A6.35,6.35,0,0,1,37,14.52a6.48,6.48,0,0,0,2.1,3.25c3,2.11,3.93,2.53,4.36,2.66l.47.15a.79.79,0,0,1,.52.38.58.58,0,0,1,0,.5L44,22.85l-8.6-1.58a1,1,0,0,0-.77.17,6.15,6.15,0,0,1-2.49,1.07h0a1,1,0,0,0-.68.48l-1.07,1.88a5.27,5.27,0,0,0,0,4.65c1.39,2.76,3,8.29-1.89,14.55a5.41,5.41,0,0,0-1.25,9.81,4.05,4.05,0,0,0,5.52-1.51,3.32,3.32,0,0,0-1.06-4.66,2.54,2.54,0,0,0-2.68,0,2.51,2.51,0,0,0-1.21,2.42,1,1,0,1,0,2-.16.51.51,0,0,1,.24-.54.54.54,0,0,1,.56,0,1.33,1.33,0,0,1,.45,2,2.09,2.09,0,0,1-2.85.78,3.33,3.33,0,0,1-1.54-3.3,3.43,3.43,0,0,1,2.62-2.91,4.88,4.88,0,0,1,4.59,2.13,5.52,5.52,0,0,1,.24,5.5A5,5,0,0,1,29.5,56a6.61,6.61,0,0,1-6.6-4.24c-1.36-3.28-.68-7.72,1.56-10A13,13,0,0,0,26,27.13l-.22-.42C24,23.39,21.49,18.84,23.41,14.63Zm2.17,18.71a12.45,12.45,0,0,1-.12,1.37c-1.27,1.1-3.79,3.23-5.06,3.23-.8,0-2.91,0-2.91-4.41s2.11-4.42,2.91-4.42c1.29,0,3.84,2.17,5.12,3.28C25.55,32.71,25.58,33,25.58,33.34Z"/></g></svg>