<?xml version="1.0" encoding="utf-8"?>
<!-- Generator: Adobe Illustrator 27.5.0, SVG Export Plug-In . SVG Version: 6.00 Build 0)  -->
<svg version="1.1" id="Layer_1" xmlns="http://www.w3.org/2000/svg" xmlns:xlink="http://www.w3.org/1999/xlink" x="0px" y="0px"
	 viewBox="0 0 290.132 258.572" style="enable-background:new 0 0 290.132 258.572;" xml:space="preserve">
<g>
	<g>
		<path style="fill:#FFFFFF;" d="M33.862,201.863c3.254-0.638,6.282-2.095,8.091-2.966l0.296-0.142c0.001,0,0.002-0.001,0.004-0.002
			c7.108-3.412,14.204-7.056,21.066-10.579c5.66-2.907,11.513-5.912,17.276-8.736c5.728-2.809,12.61-5.521,21.647-8.534
			c7.041-2.34,13.774-3.146,19.474-2.332c8.236,1.175,14.025,11.94,19.132,21.438c1.149,2.136,2.234,4.155,3.355,6.09
			c6.112,10.556,13.553,21.422,23.42,34.202c0.273,0.354,0.865,1.204,1.437,2.027c6.861,9.865,14.356,19.517,23.885,19.773
			c0.125,0.004,0.25,0.005,0.375,0.005c4.263,0,8.14-1.971,10.952-5.584c4.714-6.061,5.408-13.954,2.064-23.45
			c-1.558-4.443-2.772-9.001-4.058-13.827c-1.028-3.857-2.091-7.844-3.354-11.817c-1.85-5.842-3.248-10.572-4.401-14.884
			c-0.082-0.308-0.181-0.61-0.296-0.906c-0.407-1.685-0.839-3.377-1.274-5.076c-1.668-6.523-3.244-12.684-3.368-18.635
			c-0.053-2.622,0.322-4.004,0.646-4.702c0.036-0.077,0.07-0.154,0.103-0.231l0.004,0.002c0.021-0.035,0.043-0.069,0.064-0.104
			c0.012-0.02,0.049-0.077,0.149-0.206c0.015-0.017,0.029-0.034,0.044-0.051c1.2-1.397,3.975-2.884,6.205-4.079l1.074-0.578
			c4.828-2.622,10.014-4.682,15.505-6.862c1.596-0.634,3.193-1.268,4.782-1.916c14.059-5.738,28.264-10.17,43.429-13.551
			c5.052-1.128,17.164-4.793,20.5-14.451c1.028-2.975,1.953-8.943-3.403-15.487c-5.404-6.589-14.758-8.62-19.778-9.709
			c-7.125-1.552-15.529-2.422-25.684-2.658c-14.043-0.338-29.269,1.366-45.238,5.067l-1.409,0.331
			c-1.46,0.346-2.776,0.657-3.987,0.856c0.09-0.253,0.175-0.488,0.251-0.694c0.32-0.88,0.65-1.789,0.928-2.688
			c2.172-7.038,5.807-13.666,9.657-20.684l1.365-2.493c2.159-3.959,4.516-7.762,7.011-11.788c1.558-2.515,3.17-5.115,4.731-7.762
			c8.094-13.747,2.355-20.832-1.781-23.827c-8.665-6.284-19.457,0.325-24.644,3.502c-0.408,0.25-0.781,0.479-1.112,0.675
			c-5.295,3.134-10.843,7.254-17.46,12.966c-0.346,0.299-0.687,0.603-1.027,0.908c-0.207,0.185-0.413,0.371-0.622,0.553
			c-1.765,1.434-3.661,3.018-5.957,4.976c-3.251,2.774-6.507,5.897-10.541,10.111c-0.099,0.093-0.198,0.184-0.297,0.275
			c-0.27,0.249-0.54,0.498-0.807,0.759c-2.915,2.844-5.645,5.753-8.347,8.896c-0.302,0.351-0.608,0.724-0.918,1.12
			c-1.13,1.186-2.238,2.341-3.338,3.444c-1.868,1.878-4.01,3.664-6.278,5.554c-0.215,0.179-0.431,0.359-0.646,0.538
			c-0.807,0.069-1.635-0.028-2.558-0.293c-7.099-2.04-14.676-7.095-21.361-11.554l-0.878-0.586
			c-12.418-8.276-26.715-18.316-38.597-30.026c-9.328-9.203-18.505-6.737-23.983-1.362c-7.124,6.989-5.294,17.518-4.311,23.174
			l0.044,0.253c1.963,11.307,7.667,23.122,16.952,35.12c0.635,0.938,1.271,1.857,1.898,2.737c1.834,2.584,3.682,5.139,5.527,7.69
			c3.964,5.481,7.707,10.657,11.323,16.116c1.886,2.846,3.865,6.099,4.81,9.266c-0.373,0.894-0.891,1.814-1.563,2.779
			c-3.534,5.073-9.456,9.722-15.183,14.219c-0.904,0.71-1.796,1.41-2.664,2.101c-12.448,9.899-21.667,19.912-29.015,31.517
			c-2.383,3.768-7.963,12.591-3.961,20.388C20.252,197.452,24.294,203.735,33.862,201.863z"/>
		<path style="fill:#F1F1F1;" d="M32.9,200.901c3.254-0.638,6.283-2.095,8.091-2.966l0.296-0.142
			c0.001-0.001,0.002-0.001,0.003-0.002c7.108-3.412,14.204-7.056,21.066-10.579c5.66-2.907,11.513-5.912,17.276-8.736
			c5.728-2.809,12.61-5.521,21.647-8.534c7.041-2.34,13.774-3.146,19.474-2.332c8.236,1.175,14.025,11.94,19.132,21.438
			c1.149,2.136,2.234,4.155,3.355,6.09c6.112,10.555,13.553,21.422,23.42,34.202c0.273,0.354,0.865,1.204,1.437,2.027
			c6.861,9.865,14.356,19.517,23.885,19.773c0.125,0.004,0.25,0.005,0.375,0.005c4.263,0,8.14-1.971,10.952-5.583
			c4.714-6.061,5.408-13.954,2.064-23.45c-1.558-4.443-2.773-9.001-4.059-13.827c-1.028-3.857-2.091-7.844-3.354-11.817
			c-1.85-5.842-3.248-10.572-4.401-14.884c-0.082-0.308-0.181-0.61-0.296-0.906c-0.407-1.685-0.839-3.378-1.274-5.076
			c-1.668-6.523-3.244-12.684-3.368-18.635c-0.053-2.622,0.322-4.004,0.646-4.702c0.036-0.076,0.07-0.154,0.103-0.231l0.004,0.002
			c0.021-0.035,0.043-0.069,0.064-0.104c0.012-0.02,0.049-0.077,0.149-0.206c0.015-0.017,0.029-0.034,0.044-0.051
			c1.203-1.393,3.975-2.884,6.205-4.079l1.074-0.578c4.828-2.622,10.014-4.682,15.505-6.862c1.596-0.634,3.193-1.268,4.782-1.916
			c14.059-5.738,28.264-10.17,43.429-13.551c5.053-1.128,17.164-4.793,20.5-14.451c1.028-2.975,1.953-8.943-3.403-15.487
			c-5.404-6.589-14.758-8.62-19.778-9.709c-7.125-1.552-15.529-2.422-25.684-2.658c-14.044-0.338-29.269,1.366-45.238,5.067
			l-1.409,0.33c-1.46,0.346-2.776,0.657-3.987,0.856c0.09-0.252,0.176-0.488,0.251-0.693c0.32-0.88,0.65-1.789,0.928-2.688
			c2.172-7.038,5.808-13.666,9.657-20.684l1.365-2.493c2.159-3.959,4.516-7.762,7.011-11.788c1.558-2.515,3.17-5.115,4.731-7.761
			c8.094-13.747,2.355-20.832-1.781-23.828c-8.665-6.284-19.457,0.325-24.644,3.502c-0.408,0.25-0.781,0.479-1.112,0.675
			c-5.295,3.134-10.843,7.254-17.459,12.966c-0.346,0.299-0.687,0.603-1.027,0.908c-0.207,0.185-0.413,0.371-0.622,0.553
			c-1.765,1.434-3.661,3.018-5.957,4.976c-3.251,2.774-6.507,5.897-10.541,10.111c-0.098,0.093-0.198,0.184-0.297,0.275
			c-0.27,0.248-0.54,0.498-0.807,0.759c-2.915,2.844-5.645,5.753-8.347,8.896c-0.302,0.352-0.608,0.724-0.918,1.12
			c-1.13,1.186-2.238,2.341-3.338,3.444c-1.868,1.878-4.01,3.664-6.278,5.555c-0.215,0.179-0.431,0.359-0.646,0.538
			c-0.807,0.069-1.635-0.028-2.558-0.293c-7.099-2.04-14.676-7.095-21.361-11.554L97,60.546C84.582,52.27,70.285,42.23,58.403,30.52
			c-9.328-9.203-18.505-6.737-23.983-1.362c-7.124,6.989-5.294,17.518-4.311,23.174l0.044,0.253
			c1.963,11.307,7.666,23.122,16.952,35.12c0.635,0.938,1.271,1.857,1.898,2.737c1.834,2.584,3.682,5.139,5.527,7.69
			c3.964,5.481,7.707,10.657,11.323,16.116c1.886,2.846,3.865,6.099,4.81,9.266c-0.373,0.894-0.892,1.814-1.563,2.779
			c-3.534,5.073-9.456,9.722-15.183,14.219c-0.904,0.71-1.796,1.41-2.664,2.101c-12.448,9.899-21.667,19.912-29.015,31.517
			c-2.383,3.768-7.963,12.591-3.961,20.388C19.29,196.49,23.332,202.773,32.9,200.901z"/>
		<path style="fill:#E2E2E2;" d="M31.938,199.939c3.254-0.638,6.282-2.095,8.091-2.966l0.295-0.142
			c0.001-0.001,0.002-0.001,0.004-0.002c7.108-3.412,14.204-7.056,21.066-10.579c5.66-2.907,11.513-5.912,17.276-8.736
			c5.728-2.809,12.61-5.521,21.647-8.534c7.042-2.34,13.774-3.146,19.474-2.332c8.236,1.175,14.025,11.94,19.132,21.438
			c1.149,2.136,2.234,4.155,3.355,6.09c6.112,10.556,13.553,21.422,23.42,34.203c0.274,0.354,0.865,1.204,1.437,2.027
			c6.861,9.865,14.356,19.517,23.885,19.773c0.125,0.004,0.25,0.005,0.375,0.005c4.263,0,8.14-1.971,10.952-5.583
			c4.714-6.061,5.408-13.954,2.064-23.45c-1.558-4.443-2.772-9.001-4.059-13.827c-1.028-3.857-2.091-7.844-3.354-11.817
			c-1.85-5.842-3.248-10.572-4.401-14.884c-0.082-0.308-0.181-0.61-0.296-0.906c-0.407-1.685-0.839-3.377-1.274-5.076
			c-1.668-6.523-3.244-12.684-3.368-18.635c-0.053-2.622,0.322-4.004,0.646-4.702c0.036-0.077,0.07-0.154,0.103-0.232l0.004,0.002
			c0.021-0.034,0.043-0.069,0.064-0.104c0.012-0.02,0.049-0.077,0.149-0.206c0.015-0.017,0.029-0.033,0.044-0.051
			c1.203-1.393,3.975-2.884,6.205-4.079l1.074-0.578c4.828-2.622,10.014-4.682,15.505-6.862c1.596-0.634,3.193-1.268,4.782-1.916
			c14.059-5.738,28.264-10.17,43.429-13.551c5.053-1.128,17.164-4.793,20.5-14.451c1.028-2.975,1.953-8.944-3.404-15.488
			c-5.404-6.589-14.758-8.62-19.777-9.709c-7.125-1.552-15.529-2.422-25.684-2.658c-14.044-0.338-29.269,1.366-45.238,5.067
			l-1.409,0.33c-1.46,0.346-2.776,0.657-3.987,0.856c0.09-0.252,0.176-0.488,0.251-0.694c0.32-0.88,0.65-1.789,0.928-2.688
			c2.172-7.038,5.807-13.666,9.657-20.684l1.365-2.493c2.159-3.959,4.516-7.762,7.011-11.788c1.558-2.515,3.17-5.115,4.731-7.762
			c8.094-13.747,2.355-20.832-1.781-23.827c-8.665-6.284-19.457,0.325-24.644,3.502c-0.408,0.25-0.781,0.479-1.112,0.675
			c-5.295,3.134-10.843,7.254-17.46,12.966c-0.346,0.299-0.687,0.603-1.027,0.908c-0.207,0.185-0.413,0.371-0.622,0.553
			c-1.765,1.434-3.661,3.018-5.957,4.976c-3.251,2.774-6.507,5.897-10.541,10.111c-0.098,0.093-0.198,0.184-0.297,0.275
			c-0.27,0.249-0.54,0.498-0.807,0.759c-2.915,2.844-5.645,5.753-8.347,8.897c-0.302,0.351-0.608,0.724-0.918,1.12
			c-1.13,1.186-2.238,2.341-3.338,3.444c-1.868,1.878-4.01,3.664-6.278,5.554c-0.215,0.179-0.431,0.359-0.646,0.538
			c-0.807,0.069-1.635-0.028-2.558-0.293c-7.099-2.04-14.676-7.095-21.361-11.554l-0.878-0.586
			C83.62,51.308,69.323,41.268,57.441,29.558c-9.328-9.203-18.505-6.737-23.983-1.362c-7.124,6.989-5.294,17.518-4.311,23.174
			l0.044,0.253c1.963,11.307,7.667,23.122,16.952,35.12c0.635,0.938,1.271,1.857,1.898,2.737c1.834,2.584,3.682,5.139,5.527,7.69
			c3.964,5.48,7.707,10.657,11.323,16.116c1.886,2.846,3.865,6.099,4.81,9.266c-0.373,0.894-0.892,1.814-1.563,2.779
			c-3.534,5.073-9.456,9.722-15.183,14.219c-0.904,0.71-1.796,1.41-2.664,2.101c-12.448,9.899-21.667,19.912-29.015,31.517
			c-2.383,3.768-7.963,12.591-3.961,20.388C18.328,195.528,22.37,201.811,31.938,199.939z"/>
		<path style="fill:#D4D4D4;" d="M30.976,198.977c3.254-0.638,6.283-2.095,8.091-2.966l0.296-0.142
			c0.001-0.001,0.002-0.001,0.004-0.002c7.108-3.412,14.204-7.056,21.066-10.579c5.66-2.907,11.513-5.912,17.276-8.736
			c5.728-2.809,12.61-5.521,21.647-8.534c7.041-2.339,13.774-3.146,19.474-2.332c8.236,1.175,14.025,11.94,19.132,21.438
			c1.149,2.136,2.234,4.155,3.356,6.09c6.112,10.555,13.553,21.422,23.42,34.203c0.274,0.354,0.865,1.204,1.437,2.027
			c6.861,9.865,14.356,19.517,23.885,19.774c0.125,0.004,0.25,0.005,0.375,0.005c4.263,0,8.14-1.972,10.952-5.584
			c4.715-6.061,5.408-13.954,2.064-23.45c-1.558-4.443-2.773-9.001-4.059-13.827c-1.028-3.857-2.091-7.844-3.354-11.817
			c-1.85-5.842-3.248-10.572-4.401-14.884c-0.082-0.308-0.181-0.61-0.296-0.906c-0.407-1.685-0.839-3.378-1.274-5.076
			c-1.668-6.523-3.245-12.684-3.368-18.635c-0.053-2.622,0.322-4.004,0.646-4.702c0.036-0.077,0.07-0.154,0.103-0.232l0.004,0.002
			c0.021-0.035,0.043-0.069,0.064-0.104c0.012-0.02,0.049-0.077,0.149-0.206c0.015-0.017,0.029-0.034,0.044-0.051
			c1.203-1.393,3.975-2.884,6.205-4.079l1.074-0.578c4.828-2.622,10.014-4.682,15.505-6.862c1.596-0.634,3.193-1.268,4.782-1.916
			c14.059-5.738,28.264-10.17,43.429-13.551c5.053-1.128,17.164-4.793,20.5-14.451c1.028-2.975,1.953-8.944-3.404-15.488
			c-5.404-6.589-14.758-8.62-19.777-9.709c-7.125-1.552-15.529-2.422-25.684-2.658c-14.044-0.338-29.269,1.366-45.238,5.067
			l-1.409,0.33c-1.46,0.346-2.776,0.657-3.987,0.856c0.09-0.253,0.175-0.488,0.251-0.694c0.32-0.88,0.65-1.789,0.928-2.688
			c2.172-7.038,5.807-13.666,9.657-20.684l1.365-2.493c2.159-3.959,4.516-7.762,7.011-11.788c1.558-2.515,3.17-5.115,4.731-7.761
			c8.094-13.747,2.355-20.832-1.781-23.828c-8.665-6.284-19.457,0.325-24.644,3.502c-0.408,0.25-0.781,0.479-1.112,0.675
			c-5.295,3.134-10.843,7.254-17.46,12.966c-0.346,0.299-0.687,0.603-1.027,0.908c-0.207,0.185-0.413,0.371-0.622,0.553
			c-1.765,1.434-3.661,3.018-5.956,4.976c-3.251,2.774-6.507,5.897-10.541,10.111c-0.099,0.093-0.198,0.184-0.297,0.275
			c-0.27,0.248-0.54,0.498-0.807,0.759c-2.915,2.844-5.645,5.753-8.347,8.896c-0.302,0.352-0.608,0.724-0.918,1.12
			c-1.13,1.186-2.238,2.341-3.338,3.444c-1.868,1.878-4.01,3.664-6.278,5.554c-0.215,0.179-0.431,0.359-0.646,0.538
			c-0.807,0.069-1.635-0.028-2.558-0.293c-7.099-2.04-14.676-7.095-21.361-11.554l-0.878-0.586
			c-12.418-8.276-26.715-18.316-38.597-30.026c-9.328-9.203-18.505-6.737-23.983-1.362c-7.124,6.989-5.294,17.518-4.311,23.174
			l0.044,0.253c1.963,11.307,7.666,23.122,16.952,35.12c0.635,0.938,1.271,1.857,1.898,2.737c1.834,2.584,3.682,5.139,5.527,7.69
			c3.964,5.48,7.707,10.657,11.323,16.116c1.886,2.846,3.865,6.099,4.81,9.266c-0.374,0.894-0.892,1.814-1.563,2.779
			c-3.534,5.073-9.456,9.722-15.183,14.219c-0.904,0.71-1.796,1.41-2.664,2.101c-12.448,9.899-21.667,19.912-29.015,31.517
			c-2.383,3.768-7.963,12.591-3.961,20.388C17.366,194.566,21.408,200.849,30.976,198.977z"/>
		<path style="fill:#C5C5C5;" d="M30.014,198.015c3.254-0.638,6.283-2.095,8.092-2.966l0.295-0.142c0.001,0,0.002-0.001,0.004-0.002
			c7.108-3.412,14.204-7.056,21.066-10.579c5.66-2.907,11.513-5.912,17.276-8.736c5.728-2.809,12.61-5.521,21.647-8.534
			c7.041-2.34,13.774-3.146,19.474-2.332c8.236,1.175,14.025,11.94,19.132,21.438c1.149,2.136,2.234,4.155,3.355,6.09
			c6.112,10.555,13.553,21.422,23.42,34.203c0.274,0.354,0.865,1.204,1.437,2.027c6.861,9.865,14.356,19.517,23.885,19.773
			c0.125,0.004,0.25,0.005,0.375,0.005c4.263,0,8.14-1.971,10.952-5.583c4.715-6.061,5.408-13.954,2.064-23.45
			c-1.558-4.443-2.773-9.001-4.059-13.827c-1.028-3.857-2.091-7.844-3.354-11.817c-1.85-5.842-3.248-10.572-4.401-14.884
			c-0.082-0.308-0.181-0.61-0.296-0.906c-0.407-1.685-0.839-3.378-1.274-5.076c-1.668-6.523-3.244-12.684-3.368-18.635
			c-0.053-2.622,0.322-4.004,0.646-4.702c0.036-0.076,0.07-0.154,0.103-0.231l0.004,0.002c0.021-0.034,0.043-0.069,0.064-0.104
			c0.012-0.02,0.049-0.077,0.149-0.206c0.015-0.017,0.029-0.034,0.044-0.051c1.203-1.393,3.975-2.884,6.205-4.079l1.074-0.578
			c4.828-2.622,10.014-4.682,15.505-6.862c1.596-0.634,3.193-1.268,4.782-1.916c14.059-5.738,28.264-10.17,43.429-13.552
			c5.052-1.128,17.164-4.793,20.5-14.451c1.028-2.975,1.953-8.944-3.404-15.488c-5.403-6.589-14.758-8.62-19.777-9.709
			c-7.125-1.552-15.529-2.422-25.684-2.658c-14.044-0.338-29.269,1.366-45.238,5.067l-1.409,0.33
			c-1.46,0.346-2.776,0.657-3.987,0.857c0.091-0.253,0.176-0.488,0.251-0.694c0.32-0.88,0.65-1.789,0.928-2.688
			c2.172-7.038,5.807-13.666,9.657-20.684l1.365-2.493c2.159-3.959,4.516-7.762,7.011-11.788c1.558-2.515,3.17-5.115,4.731-7.762
			c8.094-13.747,2.355-20.832-1.781-23.827c-8.666-6.284-19.457,0.325-24.644,3.502c-0.408,0.25-0.781,0.479-1.112,0.675
			c-5.295,3.134-10.843,7.254-17.46,12.966c-0.346,0.299-0.687,0.603-1.027,0.908c-0.207,0.185-0.413,0.371-0.622,0.554
			c-1.765,1.434-3.661,3.018-5.957,4.976c-3.251,2.774-6.507,5.897-10.541,10.111c-0.098,0.093-0.198,0.184-0.297,0.275
			c-0.27,0.249-0.54,0.498-0.807,0.759c-2.915,2.844-5.644,5.753-8.347,8.896c-0.302,0.352-0.608,0.724-0.918,1.12
			c-1.13,1.186-2.238,2.341-3.338,3.444c-1.868,1.878-4.01,3.664-6.278,5.555c-0.215,0.179-0.431,0.359-0.646,0.538
			c-0.807,0.069-1.635-0.028-2.558-0.293c-7.099-2.04-14.676-7.095-21.361-11.554l-0.878-0.586
			c-12.418-8.276-26.715-18.316-38.597-30.026c-9.328-9.203-18.505-6.737-23.983-1.362c-7.124,6.989-5.294,17.518-4.311,23.174
			l0.044,0.254c1.963,11.307,7.667,23.122,16.952,35.12c0.635,0.938,1.271,1.857,1.898,2.737c1.834,2.584,3.682,5.139,5.527,7.69
			c3.964,5.481,7.707,10.657,11.323,16.116c1.885,2.846,3.865,6.099,4.81,9.266c-0.373,0.894-0.891,1.814-1.563,2.779
			c-3.534,5.073-9.456,9.722-15.183,14.219c-0.904,0.71-1.796,1.41-2.664,2.101c-12.448,9.899-21.667,19.912-29.015,31.517
			c-2.383,3.768-7.963,12.591-3.961,20.388C16.404,193.604,20.446,199.887,30.014,198.015z"/>
		<path style="fill:#B7B7B7;" d="M29.052,197.053c3.254-0.638,6.283-2.095,8.091-2.966l0.296-0.142c0.001,0,0.002-0.001,0.004-0.002
			c7.108-3.412,14.204-7.056,21.066-10.579c5.66-2.907,11.513-5.912,17.276-8.736c5.728-2.809,12.61-5.521,21.647-8.534
			c7.041-2.339,13.774-3.146,19.474-2.332c8.236,1.175,14.025,11.941,19.132,21.438c1.149,2.136,2.234,4.155,3.355,6.09
			c6.112,10.555,13.553,21.422,23.42,34.203c0.274,0.354,0.865,1.204,1.437,2.027c6.861,9.865,14.356,19.517,23.885,19.773
			c0.125,0.004,0.25,0.005,0.375,0.005c4.263,0,8.14-1.971,10.952-5.584c4.714-6.061,5.408-13.954,2.064-23.45
			c-1.558-4.443-2.772-9.001-4.059-13.827c-1.028-3.857-2.091-7.844-3.354-11.817c-1.85-5.842-3.248-10.572-4.401-14.884
			c-0.082-0.308-0.181-0.61-0.296-0.906c-0.407-1.685-0.839-3.378-1.274-5.076c-1.668-6.523-3.244-12.684-3.368-18.635
			c-0.053-2.622,0.322-4.004,0.646-4.702c0.036-0.077,0.07-0.154,0.103-0.232l0.004,0.002c0.021-0.035,0.043-0.069,0.064-0.104
			c0.012-0.02,0.049-0.077,0.149-0.206c0.015-0.017,0.029-0.033,0.044-0.051c1.203-1.393,3.975-2.884,6.205-4.079l1.074-0.578
			c4.828-2.622,10.014-4.682,15.505-6.862c1.596-0.634,3.193-1.268,4.782-1.916c14.059-5.738,28.264-10.17,43.429-13.551
			c5.052-1.128,17.164-4.793,20.5-14.451c1.028-2.975,1.953-8.944-3.403-15.488c-5.404-6.589-14.758-8.62-19.778-9.709
			c-7.125-1.552-15.529-2.422-25.684-2.658c-14.044-0.338-29.269,1.366-45.238,5.067l-1.409,0.33
			c-1.46,0.346-2.776,0.657-3.987,0.857c0.09-0.252,0.176-0.488,0.251-0.694c0.32-0.88,0.65-1.789,0.928-2.688
			c2.172-7.038,5.807-13.666,9.657-20.684l1.365-2.493c2.159-3.959,4.516-7.762,7.011-11.788c1.558-2.515,3.17-5.115,4.731-7.761
			c8.094-13.747,2.355-20.832-1.781-23.828c-8.665-6.284-19.457,0.325-24.644,3.502c-0.408,0.25-0.781,0.479-1.112,0.675
			c-5.295,3.134-10.843,7.254-17.46,12.966c-0.346,0.299-0.687,0.603-1.027,0.908c-0.207,0.185-0.413,0.371-0.622,0.553
			c-1.765,1.434-3.661,3.018-5.956,4.976c-3.251,2.774-6.507,5.897-10.541,10.111c-0.098,0.093-0.198,0.184-0.297,0.275
			c-0.27,0.248-0.54,0.498-0.807,0.759c-2.915,2.844-5.644,5.753-8.347,8.896c-0.302,0.352-0.608,0.724-0.918,1.12
			c-1.13,1.186-2.238,2.341-3.338,3.444c-1.868,1.878-4.01,3.664-6.278,5.554c-0.215,0.179-0.431,0.359-0.646,0.538
			c-0.807,0.069-1.635-0.028-2.558-0.293c-7.099-2.04-14.676-7.095-21.361-11.554l-0.878-0.586
			c-12.418-8.276-26.715-18.316-38.597-30.026c-9.328-9.203-18.505-6.737-23.983-1.362c-7.124,6.989-5.294,17.518-4.311,23.174
			l0.044,0.253c1.963,11.307,7.666,23.122,16.952,35.12c0.635,0.938,1.271,1.857,1.898,2.737c1.834,2.584,3.682,5.139,5.527,7.69
			c3.964,5.481,7.707,10.657,11.323,16.116c1.885,2.846,3.865,6.099,4.81,9.266c-0.373,0.894-0.891,1.814-1.563,2.779
			c-3.534,5.073-9.456,9.722-15.183,14.219c-0.904,0.71-1.796,1.41-2.664,2.101c-12.448,9.899-21.667,19.912-29.015,31.517
			c-2.383,3.768-7.963,12.591-3.961,20.388C15.442,192.642,19.484,198.925,29.052,197.053z"/>
		<path style="fill:#A8A8A8;" d="M28.09,196.091c3.254-0.638,6.282-2.095,8.091-2.966l0.296-0.142c0.001,0,0.002-0.001,0.004-0.002
			c7.108-3.412,14.204-7.056,21.066-10.579c5.66-2.907,11.513-5.912,17.276-8.736c5.728-2.809,12.61-5.521,21.647-8.534
			c7.041-2.339,13.774-3.146,19.474-2.332c8.236,1.175,14.025,11.94,19.132,21.438c1.149,2.136,2.234,4.155,3.355,6.09
			c6.112,10.555,13.553,21.422,23.42,34.203c0.274,0.354,0.865,1.204,1.437,2.027c6.86,9.865,14.356,19.517,23.885,19.773
			c0.125,0.004,0.25,0.005,0.375,0.005c4.263,0,8.14-1.971,10.952-5.584c4.715-6.061,5.408-13.954,2.064-23.45
			c-1.558-4.443-2.773-9.001-4.059-13.827c-1.028-3.856-2.091-7.844-3.354-11.817c-1.85-5.842-3.248-10.572-4.401-14.884
			c-0.082-0.308-0.181-0.61-0.296-0.906c-0.407-1.685-0.839-3.378-1.274-5.076c-1.668-6.523-3.245-12.684-3.368-18.635
			c-0.053-2.622,0.322-4.004,0.646-4.702c0.036-0.077,0.07-0.154,0.103-0.232l0.004,0.002c0.021-0.035,0.043-0.069,0.064-0.104
			c0.012-0.02,0.049-0.077,0.149-0.206c0.015-0.017,0.029-0.034,0.044-0.051c1.203-1.393,3.975-2.884,6.205-4.079l1.074-0.578
			c4.828-2.622,10.014-4.682,15.505-6.862c1.596-0.634,3.192-1.268,4.782-1.916c14.059-5.738,28.264-10.17,43.429-13.551
			c5.052-1.128,17.164-4.793,20.5-14.451c1.028-2.975,1.953-8.944-3.403-15.488c-5.404-6.589-14.758-8.62-19.778-9.709
			c-7.125-1.552-15.529-2.422-25.684-2.658c-14.044-0.338-29.269,1.366-45.238,5.067l-1.409,0.33
			c-1.46,0.346-2.776,0.657-3.987,0.857c0.09-0.252,0.176-0.488,0.251-0.694c0.32-0.88,0.65-1.789,0.928-2.688
			c2.172-7.038,5.807-13.666,9.657-20.684l1.365-2.493c2.159-3.959,4.516-7.762,7.011-11.788c1.558-2.515,3.17-5.115,4.731-7.761
			c8.094-13.747,2.355-20.832-1.781-23.828c-8.665-6.284-19.457,0.325-24.644,3.502c-0.408,0.25-0.781,0.479-1.112,0.675
			c-5.295,3.134-10.843,7.254-17.459,12.966c-0.346,0.299-0.687,0.603-1.027,0.908c-0.207,0.185-0.413,0.371-0.622,0.554
			c-1.765,1.434-3.661,3.018-5.956,4.976c-3.251,2.774-6.507,5.897-10.541,10.111c-0.099,0.093-0.198,0.184-0.297,0.275
			c-0.27,0.249-0.54,0.498-0.807,0.759c-2.915,2.844-5.644,5.753-8.347,8.897c-0.302,0.352-0.608,0.724-0.918,1.12
			c-1.13,1.186-2.238,2.341-3.338,3.444c-1.868,1.878-4.01,3.664-6.278,5.554c-0.215,0.179-0.431,0.359-0.646,0.538
			c-0.807,0.069-1.635-0.028-2.558-0.293c-7.099-2.041-14.676-7.095-21.361-11.554l-0.878-0.586
			C79.772,47.459,65.475,37.42,53.593,25.71c-9.328-9.203-18.505-6.737-23.983-1.362c-7.124,6.989-5.294,17.518-4.311,23.174
			l0.044,0.253c1.963,11.307,7.667,23.122,16.952,35.12c0.635,0.938,1.271,1.857,1.898,2.737c1.834,2.584,3.682,5.139,5.527,7.69
			c3.964,5.481,7.707,10.657,11.323,16.116c1.886,2.846,3.865,6.099,4.81,9.266c-0.373,0.894-0.892,1.814-1.563,2.779
			c-3.534,5.073-9.456,9.722-15.183,14.219c-0.904,0.71-1.796,1.41-2.664,2.101c-12.448,9.899-21.667,19.912-29.015,31.517
			c-2.383,3.768-7.963,12.591-3.961,20.388C14.48,191.68,18.522,197.963,28.09,196.091z"/>
		<path style="fill:#9A9A9A;" d="M27.128,195.129c3.254-0.638,6.282-2.095,8.091-2.966l0.296-0.142c0.001,0,0.002-0.001,0.004-0.002
			c7.108-3.412,14.204-7.056,21.066-10.579c5.66-2.907,11.513-5.912,17.276-8.736c5.728-2.809,12.61-5.521,21.647-8.534
			c7.041-2.34,13.774-3.146,19.474-2.332c8.236,1.175,14.025,11.94,19.132,21.438c1.149,2.136,2.234,4.155,3.355,6.09
			c6.112,10.556,13.553,21.422,23.42,34.203c0.274,0.354,0.865,1.204,1.437,2.026c6.861,9.865,14.356,19.517,23.885,19.774
			c0.125,0.004,0.25,0.005,0.375,0.005c4.263,0,8.14-1.971,10.952-5.584c4.714-6.061,5.408-13.954,2.064-23.45
			c-1.558-4.443-2.773-9.001-4.059-13.827c-1.028-3.857-2.091-7.844-3.354-11.817c-1.85-5.842-3.248-10.572-4.401-14.884
			c-0.082-0.308-0.181-0.61-0.296-0.906c-0.407-1.685-0.839-3.377-1.274-5.076c-1.668-6.523-3.244-12.684-3.368-18.635
			c-0.053-2.622,0.322-4.004,0.646-4.702c0.036-0.077,0.07-0.154,0.104-0.231l0.004,0.002c0.021-0.034,0.043-0.069,0.064-0.104
			c0.012-0.02,0.049-0.077,0.149-0.206c0.015-0.017,0.029-0.033,0.044-0.051c1.203-1.393,3.975-2.884,6.205-4.079l1.074-0.578
			c4.828-2.622,10.014-4.682,15.505-6.862c1.596-0.634,3.193-1.268,4.782-1.916c14.059-5.738,28.264-10.171,43.429-13.552
			c5.052-1.128,17.164-4.793,20.5-14.451c1.028-2.975,1.953-8.944-3.403-15.488c-5.404-6.589-14.758-8.62-19.778-9.709
			c-7.125-1.552-15.529-2.422-25.684-2.658c-14.043-0.338-29.269,1.366-45.238,5.067l-1.409,0.33
			c-1.46,0.346-2.776,0.657-3.987,0.857c0.09-0.253,0.175-0.488,0.251-0.694c0.32-0.88,0.65-1.789,0.928-2.688
			c2.172-7.038,5.807-13.666,9.657-20.684l1.365-2.493c2.159-3.959,4.516-7.762,7.011-11.788c1.558-2.515,3.17-5.115,4.731-7.761
			c8.094-13.747,2.355-20.832-1.781-23.828c-8.665-6.284-19.457,0.325-24.644,3.502c-0.408,0.25-0.781,0.479-1.112,0.675
			c-5.295,3.134-10.843,7.254-17.46,12.966c-0.346,0.299-0.687,0.603-1.027,0.908c-0.207,0.185-0.413,0.371-0.622,0.553
			c-1.765,1.434-3.661,3.018-5.956,4.976c-3.251,2.774-6.507,5.898-10.541,10.111c-0.099,0.093-0.198,0.184-0.297,0.275
			c-0.27,0.248-0.54,0.498-0.807,0.759c-2.915,2.844-5.644,5.753-8.347,8.897c-0.302,0.352-0.608,0.724-0.918,1.12
			c-1.13,1.186-2.238,2.341-3.338,3.444c-1.868,1.878-4.01,3.664-6.278,5.555c-0.215,0.179-0.431,0.359-0.646,0.538
			c-0.807,0.069-1.635-0.028-2.558-0.293c-7.099-2.04-14.676-7.095-21.361-11.554l-0.878-0.586
			C78.81,46.497,64.513,36.458,52.631,24.748c-9.328-9.203-18.505-6.737-23.983-1.362c-7.124,6.989-5.294,17.518-4.311,23.174
			l0.044,0.253c1.963,11.307,7.666,23.122,16.952,35.12c0.635,0.938,1.271,1.857,1.898,2.737c1.834,2.584,3.682,5.139,5.527,7.69
			c3.964,5.481,7.707,10.657,11.323,16.116c1.885,2.846,3.865,6.099,4.81,9.266c-0.373,0.894-0.891,1.814-1.563,2.779
			c-3.534,5.073-9.456,9.722-15.183,14.219c-0.904,0.71-1.796,1.41-2.664,2.101c-12.448,9.899-21.667,19.912-29.015,31.517
			c-2.383,3.768-7.963,12.591-3.961,20.388C13.518,190.718,17.56,197.001,27.128,195.129z"/>
		<path style="fill:#8B8B8B;" d="M26.166,194.167c3.254-0.638,6.282-2.095,8.091-2.967l0.296-0.142c0.001,0,0.002-0.001,0.004-0.002
			c7.108-3.412,14.204-7.056,21.066-10.579c5.66-2.907,11.513-5.912,17.276-8.736c5.728-2.809,12.61-5.521,21.647-8.534
			c7.041-2.339,13.774-3.146,19.474-2.332c8.236,1.175,14.025,11.94,19.132,21.438c1.149,2.136,2.234,4.155,3.355,6.09
			c6.112,10.555,13.553,21.422,23.42,34.203c0.274,0.354,0.865,1.204,1.437,2.027c6.861,9.865,14.356,19.517,23.885,19.774
			c0.125,0.004,0.25,0.005,0.375,0.005c4.263,0,8.14-1.972,10.952-5.584c4.714-6.061,5.408-13.954,2.064-23.45
			c-1.558-4.443-2.773-9.001-4.058-13.827c-1.028-3.857-2.091-7.844-3.354-11.817c-1.85-5.842-3.248-10.572-4.401-14.884
			c-0.082-0.308-0.181-0.61-0.296-0.906c-0.407-1.685-0.839-3.377-1.274-5.076c-1.668-6.523-3.245-12.684-3.368-18.635
			c-0.053-2.622,0.322-4.004,0.646-4.702c0.036-0.077,0.07-0.154,0.104-0.232l0.004,0.002c0.021-0.034,0.043-0.069,0.064-0.104
			c0.012-0.02,0.049-0.077,0.149-0.206c0.015-0.017,0.029-0.034,0.044-0.051c1.203-1.393,3.975-2.884,6.205-4.079l1.074-0.578
			c4.828-2.622,10.014-4.682,15.505-6.862c1.596-0.634,3.193-1.268,4.782-1.916c14.059-5.738,28.264-10.17,43.429-13.551
			c5.053-1.128,17.164-4.793,20.5-14.451c1.028-2.975,1.953-8.944-3.403-15.488c-5.404-6.589-14.758-8.62-19.778-9.709
			c-7.125-1.552-15.529-2.422-25.684-2.658c-14.044-0.338-29.269,1.366-45.238,5.067l-1.409,0.33
			c-1.46,0.346-2.776,0.657-3.987,0.857c0.09-0.253,0.176-0.488,0.251-0.694c0.32-0.88,0.65-1.789,0.928-2.688
			c2.172-7.038,5.807-13.666,9.657-20.684l1.365-2.493c2.159-3.959,4.516-7.762,7.011-11.788c1.558-2.515,3.17-5.115,4.731-7.761
			c8.094-13.747,2.355-20.832-1.781-23.828c-8.665-6.284-19.457,0.325-24.644,3.502c-0.408,0.25-0.781,0.479-1.112,0.675
			c-5.295,3.134-10.843,7.254-17.459,12.966c-0.346,0.299-0.687,0.603-1.027,0.908c-0.207,0.185-0.413,0.371-0.622,0.553
			c-1.765,1.434-3.661,3.018-5.957,4.976c-3.251,2.774-6.507,5.898-10.541,10.111c-0.098,0.093-0.198,0.184-0.297,0.275
			c-0.27,0.249-0.54,0.498-0.807,0.759c-2.915,2.844-5.645,5.753-8.347,8.897c-0.302,0.352-0.608,0.724-0.918,1.12
			c-1.13,1.186-2.238,2.341-3.338,3.444c-1.868,1.878-4.01,3.664-6.278,5.554c-0.215,0.179-0.431,0.359-0.646,0.538
			c-0.807,0.069-1.635-0.028-2.558-0.293c-7.099-2.04-14.676-7.095-21.361-11.554l-0.878-0.586
			c-12.418-8.276-26.715-18.316-38.597-30.026c-9.328-9.203-18.505-6.737-23.983-1.362c-7.124,6.989-5.294,17.518-4.311,23.174
			l0.044,0.253c1.964,11.307,7.667,23.122,16.952,35.12c0.635,0.938,1.271,1.857,1.898,2.737c1.834,2.584,3.682,5.139,5.527,7.69
			c3.964,5.481,7.707,10.657,11.323,16.116c1.886,2.846,3.865,6.099,4.81,9.266c-0.373,0.894-0.891,1.814-1.563,2.779
			c-3.534,5.073-9.456,9.722-15.183,14.219c-0.904,0.71-1.796,1.41-2.664,2.101c-12.448,9.899-21.667,19.912-29.015,31.517
			c-2.383,3.768-7.963,12.591-3.961,20.388C12.556,189.756,16.598,196.039,26.166,194.167z"/>
		<path style="fill:#7D7D7D;" d="M25.204,193.205c3.254-0.638,6.283-2.095,8.092-2.966l0.295-0.142c0.001,0,0.002-0.001,0.004-0.002
			c7.108-3.412,14.204-7.056,21.066-10.579c5.66-2.907,11.513-5.912,17.276-8.736c5.728-2.809,12.61-5.521,21.647-8.534
			c7.042-2.34,13.775-3.146,19.474-2.332c8.236,1.175,14.025,11.94,19.132,21.438c1.149,2.136,2.234,4.155,3.355,6.09
			c6.112,10.555,13.553,21.422,23.42,34.203c0.274,0.354,0.865,1.204,1.437,2.027c6.861,9.865,14.356,19.517,23.885,19.774
			c0.125,0.003,0.25,0.005,0.375,0.005c4.263,0,8.14-1.971,10.952-5.584c4.714-6.061,5.408-13.954,2.064-23.45
			c-1.558-4.443-2.773-9.001-4.059-13.827c-1.028-3.856-2.091-7.844-3.354-11.817c-1.85-5.842-3.248-10.572-4.401-14.884
			c-0.082-0.308-0.181-0.61-0.296-0.906c-0.407-1.685-0.839-3.377-1.274-5.076c-1.668-6.523-3.245-12.684-3.368-18.635
			c-0.053-2.622,0.322-4.004,0.646-4.702c0.036-0.077,0.07-0.154,0.104-0.231l0.004,0.002c0.021-0.035,0.043-0.069,0.064-0.104
			c0.012-0.02,0.049-0.077,0.149-0.206c0.015-0.017,0.029-0.034,0.044-0.051c1.203-1.393,3.975-2.884,6.205-4.079l1.074-0.578
			c4.828-2.622,10.014-4.682,15.505-6.862c1.596-0.634,3.192-1.268,4.782-1.916c14.059-5.738,28.264-10.17,43.429-13.551
			c5.053-1.128,17.164-4.793,20.5-14.451c1.028-2.975,1.953-8.944-3.403-15.488c-5.404-6.589-14.758-8.62-19.778-9.709
			c-7.125-1.552-15.529-2.422-25.684-2.658c-14.044-0.338-29.269,1.366-45.238,5.067l-1.409,0.33
			c-1.46,0.346-2.776,0.657-3.987,0.857c0.09-0.253,0.176-0.488,0.251-0.694c0.32-0.88,0.65-1.789,0.928-2.688
			c2.172-7.038,5.807-13.666,9.657-20.684l1.365-2.493c2.159-3.959,4.516-7.762,7.011-11.788c1.558-2.515,3.17-5.115,4.731-7.762
			c8.094-13.747,2.355-20.831-1.781-23.827c-8.665-6.284-19.457,0.325-24.644,3.502c-0.408,0.25-0.781,0.479-1.112,0.675
			c-5.295,3.134-10.843,7.254-17.46,12.966c-0.346,0.299-0.687,0.603-1.027,0.908c-0.207,0.185-0.413,0.371-0.622,0.553
			c-1.765,1.434-3.661,3.018-5.957,4.976c-3.251,2.774-6.507,5.898-10.541,10.111c-0.098,0.093-0.198,0.184-0.297,0.275
			c-0.27,0.248-0.54,0.498-0.807,0.759c-2.915,2.844-5.644,5.753-8.347,8.897c-0.302,0.351-0.608,0.724-0.918,1.12
			c-1.13,1.186-2.238,2.341-3.338,3.444c-1.869,1.878-4.01,3.664-6.278,5.554c-0.215,0.179-0.431,0.359-0.646,0.538
			c-0.807,0.069-1.635-0.028-2.558-0.293c-7.099-2.041-14.676-7.095-21.361-11.554l-0.878-0.586
			c-12.418-8.276-26.715-18.316-38.597-30.026c-9.328-9.203-18.505-6.737-23.983-1.362C19.6,28.45,21.43,38.979,22.413,44.635
			l0.044,0.253c1.964,11.307,7.667,23.122,16.952,35.12c0.635,0.938,1.271,1.857,1.898,2.737c1.834,2.584,3.682,5.139,5.527,7.69
			c3.964,5.481,7.707,10.657,11.323,16.116c1.885,2.846,3.865,6.099,4.81,9.266c-0.373,0.894-0.891,1.814-1.563,2.779
			c-3.534,5.073-9.456,9.722-15.183,14.219c-0.904,0.71-1.796,1.41-2.664,2.101c-12.448,9.899-21.667,19.912-29.015,31.517
			c-2.383,3.768-7.963,12.591-3.961,20.388C11.594,188.794,15.636,195.077,25.204,193.205z"/>
		<path style="fill:#6E6E6E;" d="M24.242,192.243c3.254-0.638,6.283-2.095,8.091-2.966l0.296-0.142
			c0.001-0.001,0.002-0.001,0.004-0.002c7.108-3.412,14.204-7.056,21.066-10.579c5.66-2.907,11.513-5.912,17.276-8.736
			c5.728-2.809,12.61-5.521,21.647-8.534c7.042-2.34,13.774-3.146,19.474-2.332c8.236,1.175,14.025,11.94,19.132,21.438
			c1.149,2.136,2.234,4.155,3.355,6.09c6.112,10.556,13.553,21.422,23.42,34.203c0.274,0.354,0.865,1.204,1.437,2.027
			c6.861,9.865,14.356,19.517,23.885,19.773c0.125,0.004,0.25,0.005,0.375,0.005c4.263,0,8.14-1.971,10.952-5.584
			c4.714-6.061,5.408-13.954,2.064-23.45c-1.558-4.443-2.773-9.001-4.059-13.827c-1.028-3.857-2.09-7.844-3.354-11.817
			c-1.85-5.842-3.248-10.572-4.401-14.884c-0.082-0.308-0.181-0.61-0.296-0.906c-0.407-1.685-0.839-3.377-1.274-5.076
			c-1.668-6.523-3.244-12.684-3.368-18.635c-0.053-2.622,0.322-4.004,0.646-4.702c0.036-0.077,0.07-0.154,0.103-0.232l0.004,0.002
			c0.021-0.035,0.043-0.069,0.064-0.104c0.012-0.02,0.049-0.077,0.149-0.206c0.015-0.017,0.029-0.034,0.044-0.051
			c1.203-1.393,3.975-2.884,6.205-4.079l1.074-0.578c4.828-2.622,10.014-4.682,15.505-6.862c1.596-0.634,3.193-1.268,4.782-1.917
			c14.059-5.738,28.264-10.17,43.429-13.551c5.053-1.128,17.164-4.793,20.5-14.451c1.028-2.975,1.953-8.944-3.403-15.488
			c-5.404-6.589-14.758-8.62-19.778-9.709c-7.125-1.552-15.529-2.422-25.684-2.658c-14.044-0.338-29.269,1.366-45.238,5.067
			l-1.409,0.33c-1.46,0.346-2.776,0.657-3.987,0.857c0.09-0.253,0.175-0.488,0.251-0.694c0.32-0.88,0.65-1.789,0.928-2.688
			c2.172-7.038,5.807-13.666,9.657-20.684l1.365-2.493c2.159-3.959,4.516-7.762,7.011-11.788c1.558-2.515,3.17-5.115,4.731-7.761
			c8.094-13.747,2.355-20.832-1.781-23.827c-8.665-6.284-19.457,0.325-24.644,3.502c-0.408,0.25-0.781,0.479-1.112,0.675
			c-5.295,3.134-10.843,7.254-17.46,12.966c-0.346,0.299-0.687,0.603-1.027,0.908c-0.207,0.185-0.413,0.371-0.622,0.553
			c-1.765,1.434-3.661,3.018-5.957,4.976c-3.251,2.774-6.507,5.898-10.541,10.111c-0.099,0.093-0.198,0.184-0.297,0.275
			c-0.27,0.249-0.54,0.498-0.807,0.759c-2.915,2.844-5.645,5.753-8.347,8.897c-0.302,0.351-0.608,0.724-0.918,1.12
			c-1.13,1.186-2.238,2.341-3.338,3.444c-1.868,1.878-4.01,3.663-6.278,5.554c-0.215,0.179-0.431,0.359-0.646,0.538
			c-0.807,0.069-1.635-0.028-2.558-0.293c-7.099-2.041-14.676-7.095-21.361-11.554l-0.878-0.586
			c-12.418-8.276-26.715-18.316-38.597-30.026c-9.328-9.203-18.505-6.737-23.983-1.362c-7.124,6.989-5.294,17.518-4.311,23.174
			l0.044,0.253c1.963,11.307,7.667,23.122,16.952,35.12c0.635,0.938,1.271,1.857,1.898,2.737c1.834,2.584,3.682,5.139,5.527,7.69
			c3.964,5.481,7.707,10.657,11.323,16.116c1.886,2.846,3.865,6.099,4.81,9.266c-0.373,0.894-0.891,1.814-1.563,2.779
			c-3.534,5.073-9.456,9.722-15.183,14.219c-0.904,0.71-1.796,1.41-2.664,2.101c-12.448,9.899-21.667,19.912-29.015,31.517
			c-2.383,3.768-7.963,12.591-3.961,20.388C10.632,187.832,14.674,194.115,24.242,192.243z"/>
		<path style="fill:#606060;" d="M23.28,191.281c3.254-0.638,6.283-2.095,8.091-2.966l0.296-0.142
			c0.001-0.001,0.002-0.001,0.003-0.002c7.108-3.412,14.204-7.056,21.066-10.579c5.66-2.907,11.513-5.912,17.276-8.736
			c5.728-2.809,12.61-5.521,21.647-8.534c7.041-2.34,13.774-3.146,19.474-2.332c8.236,1.175,14.025,11.94,19.132,21.438
			c1.149,2.136,2.234,4.155,3.355,6.09c6.112,10.555,13.553,21.422,23.42,34.202c0.273,0.354,0.865,1.204,1.437,2.027
			c6.861,9.865,14.356,19.517,23.885,19.773c0.125,0.004,0.25,0.005,0.375,0.005c4.263,0,8.14-1.972,10.952-5.584
			c4.714-6.061,5.408-13.954,2.064-23.45c-1.558-4.443-2.773-9.001-4.059-13.827c-1.028-3.857-2.091-7.844-3.354-11.817
			c-1.85-5.842-3.248-10.572-4.401-14.884c-0.082-0.308-0.181-0.61-0.296-0.906c-0.407-1.685-0.839-3.377-1.274-5.076
			c-1.668-6.523-3.244-12.684-3.368-18.635c-0.053-2.622,0.322-4.004,0.646-4.702c0.036-0.077,0.07-0.154,0.103-0.232l0.004,0.002
			c0.021-0.035,0.043-0.069,0.064-0.104c0.012-0.02,0.049-0.077,0.149-0.206c0.015-0.017,0.029-0.034,0.044-0.051
			c1.2-1.397,3.975-2.884,6.205-4.079l1.074-0.578c4.828-2.622,10.014-4.682,15.505-6.862c1.596-0.634,3.193-1.268,4.782-1.916
			c14.059-5.738,28.264-10.17,43.429-13.551c5.052-1.128,17.164-4.793,20.5-14.451c1.028-2.975,1.953-8.943-3.403-15.487
			c-5.404-6.589-14.758-8.62-19.778-9.709c-7.125-1.552-15.529-2.422-25.684-2.658c-14.044-0.338-29.269,1.366-45.238,5.067
			l-1.409,0.331c-1.46,0.346-2.776,0.657-3.987,0.856c0.09-0.253,0.176-0.488,0.251-0.694c0.32-0.88,0.65-1.789,0.928-2.688
			c2.172-7.038,5.808-13.666,9.657-20.684l1.365-2.493c2.159-3.959,4.516-7.762,7.011-11.788c1.558-2.515,3.17-5.115,4.731-7.762
			c8.094-13.747,2.355-20.832-1.781-23.827c-8.666-6.284-19.457,0.325-24.644,3.502c-0.408,0.25-0.781,0.479-1.112,0.675
			c-5.295,3.134-10.843,7.254-17.46,12.966c-0.346,0.299-0.687,0.603-1.027,0.908c-0.207,0.185-0.413,0.371-0.622,0.553
			c-1.765,1.434-3.661,3.018-5.957,4.976c-3.251,2.774-6.507,5.898-10.541,10.111c-0.098,0.093-0.198,0.184-0.297,0.275
			c-0.27,0.249-0.54,0.498-0.807,0.759c-2.915,2.844-5.645,5.753-8.347,8.896c-0.302,0.351-0.608,0.724-0.918,1.12
			c-1.13,1.186-2.238,2.341-3.338,3.444c-1.868,1.878-4.01,3.664-6.278,5.554c-0.215,0.179-0.431,0.359-0.646,0.538
			c-0.807,0.069-1.635-0.028-2.558-0.293c-7.099-2.04-14.676-7.095-21.361-11.554l-0.878-0.586
			C74.962,42.649,60.665,32.61,48.783,20.9c-9.328-9.203-18.505-6.737-23.983-1.362c-7.124,6.989-5.294,17.518-4.311,23.174
			l0.044,0.253c1.963,11.307,7.667,23.122,16.952,35.12c0.635,0.938,1.271,1.857,1.898,2.737c1.834,2.584,3.682,5.139,5.527,7.69
			c3.964,5.481,7.707,10.657,11.323,16.116c1.885,2.846,3.865,6.099,4.81,9.266c-0.373,0.894-0.892,1.814-1.563,2.779
			c-3.534,5.073-9.456,9.722-15.183,14.219c-0.904,0.71-1.796,1.41-2.664,2.101c-12.448,9.899-21.667,19.912-29.015,31.517
			c-2.383,3.768-7.964,12.591-3.961,20.388C9.67,186.87,13.712,193.153,23.28,191.281z"/>
	</g>
	<path style="fill:#FFFFFF;" d="M23.28,191.281c3.254-0.638,6.283-2.095,8.091-2.966l0.296-0.142
		c0.001-0.001,0.002-0.001,0.003-0.002c7.108-3.412,14.204-7.056,21.066-10.579c5.66-2.907,11.513-5.912,17.276-8.736
		c5.728-2.809,12.61-5.521,21.647-8.534c7.041-2.34,13.774-3.146,19.474-2.332c8.236,1.175,14.025,11.94,19.132,21.438
		c1.149,2.136,2.234,4.155,3.355,6.09c6.112,10.555,13.553,21.422,23.42,34.202c0.273,0.354,0.865,1.204,1.437,2.027
		c6.861,9.865,14.356,19.517,23.885,19.773c0.125,0.004,0.25,0.005,0.375,0.005c4.263,0,8.14-1.972,10.952-5.584
		c4.714-6.061,5.408-13.954,2.064-23.45c-1.558-4.443-2.773-9.001-4.059-13.827c-1.028-3.857-2.091-7.844-3.354-11.817
		c-1.85-5.842-3.248-10.572-4.401-14.884c-0.082-0.308-0.181-0.61-0.296-0.906c-0.407-1.685-0.839-3.377-1.274-5.076
		c-1.668-6.523-3.244-12.684-3.368-18.635c-0.053-2.622,0.322-4.004,0.646-4.702c0.036-0.077,0.07-0.154,0.103-0.232l0.004,0.002
		c0.021-0.035,0.043-0.069,0.064-0.104c0.012-0.02,0.049-0.077,0.149-0.206c0.015-0.017,0.029-0.034,0.044-0.051
		c1.2-1.397,3.975-2.884,6.205-4.079l1.074-0.578c4.828-2.622,10.014-4.682,15.505-6.862c1.596-0.634,3.193-1.268,4.782-1.916
		c14.059-5.738,28.264-10.17,43.429-13.551c5.052-1.128,17.164-4.793,20.5-14.451c1.028-2.975,1.953-8.943-3.403-15.487
		c-5.404-6.589-14.758-8.62-19.778-9.709c-7.125-1.552-15.529-2.422-25.684-2.658c-14.044-0.338-29.269,1.366-45.238,5.067
		l-1.409,0.331c-1.46,0.346-2.776,0.657-3.987,0.856c0.09-0.253,0.176-0.488,0.251-0.694c0.32-0.88,0.65-1.789,0.928-2.688
		c2.172-7.038,5.808-13.666,9.657-20.684l1.365-2.493c2.159-3.959,4.516-7.762,7.011-11.788c1.558-2.515,3.17-5.115,4.731-7.762
		c8.094-13.747,2.355-20.832-1.781-23.827c-8.666-6.284-19.457,0.325-24.644,3.502c-0.408,0.25-0.781,0.479-1.112,0.675
		c-5.295,3.134-10.843,7.254-17.46,12.966c-0.346,0.299-0.687,0.603-1.027,0.908c-0.207,0.185-0.413,0.371-0.622,0.553
		c-1.765,1.434-3.661,3.018-5.957,4.976c-3.251,2.774-6.507,5.898-10.541,10.111c-0.098,0.093-0.198,0.184-0.297,0.275
		c-0.27,0.249-0.54,0.498-0.807,0.759c-2.915,2.844-5.645,5.753-8.347,8.896c-0.302,0.351-0.608,0.724-0.918,1.12
		c-1.13,1.186-2.238,2.341-3.338,3.444c-1.868,1.878-4.01,3.664-6.278,5.554c-0.215,0.179-0.431,0.359-0.646,0.538
		c-0.807,0.069-1.635-0.028-2.558-0.293c-7.099-2.04-14.676-7.095-21.361-11.554l-0.878-0.586
		C74.962,42.649,60.665,32.61,48.783,20.9c-9.328-9.203-18.505-6.737-23.983-1.362c-7.124,6.989-5.294,17.518-4.311,23.174
		l0.044,0.253c1.963,11.307,7.667,23.122,16.952,35.12c0.635,0.938,1.271,1.857,1.898,2.737c1.834,2.584,3.682,5.139,5.527,7.69
		c3.964,5.481,7.707,10.657,11.323,16.116c1.885,2.846,3.865,6.099,4.81,9.266c-0.373,0.894-0.892,1.814-1.563,2.779
		c-3.534,5.073-9.456,9.722-15.183,14.219c-0.904,0.71-1.796,1.41-2.664,2.101c-12.448,9.899-21.667,19.912-29.015,31.517
		c-2.383,3.768-7.964,12.591-3.961,20.388C9.67,186.87,13.712,193.153,23.28,191.281z"/>
	<g>
		<path style="fill:#5C2F10;" d="M261.367,90.653c-3.331-4.063-10.049-5.67-14.895-6.722c-7.72-1.682-16.151-2.277-24.041-2.461
			c-14.357-0.347-29.093,1.607-43.07,4.847c-4.189,0.967-8.162,2.117-12.506,1.43c-1.703-0.266-2.988-1.045-3.985-2.084
			c-0.036-0.075-0.091-0.124-0.13-0.2c-1.648-3.549,1.057-8.96,2.121-12.399c2.712-8.787,7.327-16.76,11.698-24.78
			c3.699-6.782,7.963-13.154,11.883-19.798c2.141-3.638,4.942-9.219,0.611-12.356c-4.403-3.194-12.601,2.49-16.204,4.622
			c-5.655,3.347-11.234,7.773-16.206,12.065c-0.585,0.505-1.15,1.029-1.73,1.533c-2.002,1.625-3.972,3.282-5.911,4.936
			c-3.522,3.005-6.824,6.287-10.041,9.653c-0.386,0.372-0.79,0.725-1.176,1.101c-2.739,2.672-5.329,5.437-7.821,8.335
			c-0.299,0.348-0.602,0.725-0.914,1.133c-1.25,1.313-2.502,2.622-3.777,3.902c-2.837,2.851-6.034,5.362-9.111,7.977
			c-2.676,0.849-5.607,1.01-8.951,0.05c-8.739-2.511-17.15-8.256-24.664-13.263c-13.819-9.21-28.022-19.384-39.884-31.074
			c-3.717-3.668-7.782-5.252-11.764-1.345c-3.928,3.853-2.611,10.957-1.784,15.718c1.963,11.307,8.119,22.098,15.428,31.497
			c0.647,0.96,1.297,1.901,1.944,2.809c5.709,8.045,11.556,15.807,17.009,24.037c3.008,4.54,5.708,9.296,6.558,14.429
			c-0.55,2.385-1.618,4.809-3.426,7.407c-4.907,7.044-12.901,12.851-19.573,18.158c-10.723,8.526-19.713,17.729-27.074,29.356
			c-1.65,2.609-5.287,8.414-3.573,11.754c2.098,4.088,8.526,0.818,11.492-0.604c12.86-6.173,25.466-13.006,38.277-19.283
			c7.176-3.518,15.165-6.455,22.735-8.979c7.443-2.473,15.648-3.803,23.452-2.689c14.944,2.133,22.102,20.235,28.795,31.787
			c6.74,11.639,14.548,22.585,22.773,33.239c3.084,3.988,15.836,25.25,22.881,16.202c3.445-4.428,2.481-10.215,0.72-15.219
			c-2.981-8.503-4.763-17.296-7.497-25.897c-1.586-5.01-3.136-10.118-4.511-15.263c-0.071-0.107-0.134-0.223-0.171-0.366
			c-2.037-8.614-4.876-17.402-5.061-26.326c-0.061-3.067,0.281-6.017,1.454-8.546c0.015-0.051,0.024-0.106,0.04-0.162
			c0.061-0.136,0.152-0.252,0.217-0.383c0.113-0.217,0.24-0.434,0.371-0.644c0.218-0.358,0.457-0.697,0.72-1.033
			c0.1-0.128,0.201-0.252,0.31-0.375c2.529-2.944,6.587-4.93,9.73-6.637c6.774-3.678,14.032-6.283,21.152-9.189
			c14.746-6.018,29.287-10.524,44.824-13.988C256.367,104.945,268.637,99.534,261.367,90.653z"/>
		<path style="fill:#F17995;" d="M248.371,104.382c-14.451,3.196-28.201,7.243-41.829,13.061c-10.502,4.482-21.24,8.1-30.699,14.7
			c-0.768,0.531-1.432,1.087-2.054,1.657c0.711-1.331,1.567-2.647,2.598-3.944c-0.887,0.566-1.747,1.162-2.578,1.793
			c-2.62,3.591-4.234,7.226-5.051,11.965c-1.234,7.156,1.247,14.607,2.179,21.632c0.904,6.783,3.578,13.828,5.319,20.464
			c2.15,8.169,4.887,16.109,6.812,24.359c0.702,3.011,2.128,5.969,3.151,8.892c0.776,2.21,0.847,4.602,0.86,6.92
			c0.042,6.94-4.718,4.33-7.173,2.765c-6.213-3.958-9.712-10.822-14.243-16.412c-4.341-5.355-8.001-11.28-12.153-16.772
			c-2.159-2.858-4.269-5.856-6.209-8.861c-1.863-2.896-3.033-6.507-5.203-9.165c-4.493-5.488-7.051-12.753-11.002-18.672
			c-3.393-5.089-8.442-9.769-14.427-11.421c-13.043-3.601-27.338,2.01-39.216,6.962c-13.358,5.574-26.806,11.582-39.512,18.557
			c-3.305,1.82-19.517,12.263-19.735,4.275c-0.124-4.353,4.014-9.159,6.294-12.579c2.489-3.74,5.467-6.951,8.418-10.309
			c9.485-10.772,22.599-17.73,32.156-28.441c1.259-1.411,2.443-2.893,3.497-4.452c3.546-6.964,5.45-14.403,0.78-19.981
			c0.352,1.601,0.668,3.16,0.878,4.657c-1.275-2.84-3.156-5.515-4.824-8.058c-2.112-3.235-4.034-6.797-6.386-9.844
			c-1.514-1.962-3.016-3.909-4.507-5.852c-8.336-9.274-16.153-19.548-19.838-31.271c0.073,0.555,0.157,1.112,0.27,1.675
			c-1.263-3.086-2.38-6.224-3.255-9.437c-1.058-3.9-1.414-7.766-1.352-11.782c0.122-8.099,5.183-6.201,8.201-4.185
			c1.772,1.188,3.225,2.967,4.835,4.357c6.437,5.57,12.835,11.367,19.837,16.213c5.935,4.104,11.483,8.606,17.486,12.626
			c6.573,4.403,13.451,7.836,20.326,11.644c3.004,1.666,6.576,2.455,10.087,2.314c5.2-0.512,9.121-5.008,12.791-8.386
			c1.162-1.069,2.343-2.113,3.511-3.171c0.16-0.209,0.33-0.408,0.49-0.619c5.896-5.925,11.503-12.146,17.464-18.038
			c1.456-1.318,2.916-2.628,4.382-3.924c2.58-2.276,5.238-4.438,7.929-6.557c4.322-3.894,8.825-7.576,13.886-10.332
			c2.592-1.696,5.338-3.111,8.19-4.342c2.686-1.161,5.821-1.755,8.36,0.096c3.298,2.411-0.635,8.08-2.112,10.574
			c-7.894,13.33-16.036,26.109-22.004,40.476c-0.936,2.263-2.152,5.164-2.99,8.126c-0.709,4.427-0.726,9.214,2.434,12.022
			c2.356,1.155,5.52,1.045,8.092,0.191c4.75-0.549,9.649-2.317,13.983-3.128c15.837-2.961,30.949-4.755,47.09-3.142
			c7.273,0.731,14.598,1.69,21.335,4.676c2.876,1.274,5.374,3.204,6.979,5.936C264.502,100.985,251.543,103.677,248.371,104.382z"/>
		<path style="fill:#F17995;" d="M34.946,52.682c-0.113-0.563-0.196-1.12-0.27-1.675c3.685,11.724,11.502,21.998,19.838,31.271
			c1.491,1.943,2.992,3.89,4.507,5.852c2.352,3.047,4.274,6.609,6.386,9.844c1.467,2.231,3.072,4.576,4.31,7.036
			c-2.096-7.499-8.16-14.518-11.91-20.813c-5.404-9.071-10.954-18.041-16.291-27.151c-5.039-8.596-11.107-18.948-10.641-29.123
			c-0.318,0.879-0.512,2.033-0.535,3.539c-0.063,4.016,0.293,7.882,1.352,11.782C32.566,46.458,33.682,49.596,34.946,52.682z"/>
		<path style="fill:#F17995;" d="M145.962,47.68c10.887-11.908,24.041-23.292,39.133-29.667c-1.784-0.183-3.653,0.319-5.342,1.05
			c-2.852,1.231-5.598,2.646-8.19,4.342c-5.06,2.756-9.563,6.438-13.886,10.332c-2.69,2.119-5.348,4.28-7.929,6.557
			c-1.466,1.297-2.926,2.606-4.382,3.924c-5.961,5.892-11.567,12.113-17.464,18.038c-0.16,0.211-0.33,0.41-0.49,0.619
			c-1.168,1.058-2.35,2.102-3.511,3.171c-2.853,2.63-5.868,5.905-9.509,7.484C126.425,74.728,139.322,54.938,145.962,47.68z"/>
		<path style="fill:#F17995;" d="M65.073,153.007c-11.46,4.473-21.959,10.743-31.701,18.231c-4.397,3.385-8.286,7.235-12.849,8.777
			c4.635,0.773,14.867-5.745,17.419-7.151c12.706-6.975,26.154-12.984,39.512-18.557c9.935-4.143,21.553-8.718,32.724-8.015
			C95.814,142.468,77.588,148.128,65.073,153.007z"/>
		<path style="fill:#F17995;" d="M182.831,211.613c0.886,1.851,1.796,3.694,2.708,5.529c-0.904-2.331-1.913-4.687-2.469-7.073
			c-1.926-8.25-4.662-16.19-6.812-24.359c-1.741-6.635-4.415-13.68-5.319-20.464c-0.46-3.469-1.297-7.036-1.879-10.63
			c-0.35,7.345,0.714,15.125,1.599,19.108C173.519,186.618,177.123,199.661,182.831,211.613z"/>
		<path style="fill:#F17995;" d="M260.919,94.889c-0.358-0.605-0.768-1.15-1.203-1.682c-12.917-1.88-25.817-3.104-38.902-2.875
			c-14.388,0.252-28.88,1.15-43.209,2.471c-13.808,1.275-26.892,4.918-40.508,7.139c-1.51,0.239,22.679-12.084,24.379-12.433
			c-1.107-2.676-0.977-6.016-0.47-9.176c0.838-2.962,2.054-5.863,2.99-8.126c5.968-14.368,14.11-27.146,22.004-40.476
			c1.477-2.494,5.41-8.163,2.112-10.574c-1.243-0.907-2.629-1.22-4.032-1.175c-29.294,17.881-67.874,77.098-67.984,75.682
			c-0.693-8.832,0.787-16.635,3.874-23.939c-2.598,2.319-5.453,4.366-8.859,4.705c-3.511,0.141-7.083-0.648-10.087-2.314
			c-6.876-3.808-13.754-7.241-20.326-11.644c-6.003-4.019-11.551-8.522-17.486-12.626c-7.002-4.847-13.4-10.643-19.837-16.213
			c-1.61-1.391-3.063-3.169-4.835-4.357c-2.31-1.544-5.813-3.003-7.385,0.031c3.429,17.284,14.436,32.601,26.684,44.896
			c13.217,13.259,28.94,21.94,44.541,31.966c1.099,0.705,1.027,2.572-0.376,2.895c-10.825,2.487-21.677,0.592-31.503-3.971
			c3.086,5.338,1.27,11.984-1.927,18.262c-1.054,1.559-2.238,3.041-3.497,4.452c-9.557,10.711-22.671,17.669-32.156,28.441
			c-2.951,3.357-5.93,6.568-8.418,10.309c-2.28,3.421-6.418,8.226-6.294,12.579c0.113,4.186,4.624,3.296,9.365,1.256
			c12.178-12.77,24.36-25.715,38.481-36.339c13.628-10.245,28.874-23.369,45.928-26.961c1.43-0.304-21.973,28.487-27.639,33.226
			c-2.655,2.22-5.351,4.379-8.083,6.5c0.396-0.168,0.796-0.348,1.195-0.515c11.878-4.952,26.173-10.563,39.216-6.962
			c5.985,1.652,11.035,6.332,14.427,11.421c3.951,5.919,6.509,13.184,11.002,18.672c2.169,2.658,3.34,6.268,5.203,9.165
			c1.941,3.004,4.051,6.003,6.209,8.861c4.152,5.492,7.812,11.417,12.153,16.772c4.531,5.59,8.03,12.454,14.243,16.412
			c2.346,1.496,6.787,3.92,7.137-1.918c-2.241-3.493-4.083-7.408-6.139-10.915c-6.709-11.446-13.12-22.88-18.945-34.809
			c-5.51-11.275-18.9-37.298-18.994-37.465c-4.9-8.59-10.722-29.64-9.709-29.079c6.965,3.849,29.865,28.245,35.24,34.8
			c-0.094-1.892-0.059-3.784,0.261-5.646c0.817-4.739,2.43-8.374,5.051-11.965c0.831-0.631,1.691-1.227,2.578-1.793
			c-1.03,1.297-1.887,2.613-2.598,3.944c0.622-0.57,1.286-1.126,2.054-1.657c9.458-6.6,20.197-10.218,30.699-14.7
			c13.628-5.819,27.378-9.865,41.829-13.061C251.543,103.677,264.502,100.985,260.919,94.889z"/>
		<g>
			<path style="fill:#F6F192;" d="M40.073,30.815c2.756,0.77,4.643,3.673,4.277,6.655c-0.387,2.976-2.906,4.933-5.783,4.226
				c-2.871-0.701-4.956-3.866-4.491-6.946C34.519,31.651,37.329,30.064,40.073,30.815z"/>
			<path style="fill:#F6F192;" d="M47.631,43.721c2.454,0.466,4.228,2.863,4.101,5.41c-0.11,2.544-2.156,4.337-4.64,3.91
				c-2.503-0.414-4.371-2.993-4.233-5.566C43.035,44.872,45.231,43.23,47.631,43.721z"/>
			<path style="fill:#F6F192;" d="M55.16,54.772c2.025,0.253,3.643,2.104,3.658,4.211c0.004,2.098-1.579,3.669-3.598,3.415
				c-2.022-0.243-3.726-2.208-3.745-4.318C51.477,55.955,53.172,54.488,55.16,54.772z"/>
			<path style="fill:#F6F192;" d="M62.702,63.838c1.917,0.131,3.447,1.862,3.655,3.772c0.174,1.943-1.213,3.506-3.154,3.407
				c-1.97-0.061-3.644-1.848-3.763-3.851C59.312,65.163,60.802,63.708,62.702,63.838z"/>
			<path style="fill:#F6F192;" d="M70.255,72.213c1.571,0.067,3.12,1.292,3.356,2.962c0.246,1.645-0.838,3.042-2.478,3.06
				c-1.629,0.013-3.256-1.316-3.46-3.025C67.478,73.505,68.651,72.18,70.255,72.213z"/>
			<path style="fill:#F6F192;" d="M77.546,79.312c1.339-0.099,2.635,0.871,2.934,2.213c0.296,1.329-0.513,2.53-1.847,2.629
				c-1.338,0.106-2.704-0.928-3.003-2.269C75.326,80.542,76.22,79.391,77.546,79.312z"/>
			<path style="fill:#F6F192;" d="M84,83.999c1.573-0.166,3.247,0.84,3.714,2.437c0.471,1.589-0.385,3.11-1.999,3.344
				c-1.608,0.236-3.393-0.891-3.857-2.504C81.435,85.606,82.424,84.166,84,83.999z"/>
			<path style="fill:#F6F192;" d="M90.737,88.971c1.293-0.185,2.786,0.55,3.296,1.862c0.511,1.298-0.12,2.641-1.477,2.95
				c-1.342,0.277-2.98-0.477-3.42-1.907C88.671,90.485,89.419,89.212,90.737,88.971z"/>
			<path style="fill:#F6F192;" d="M97.029,92.96c1.076-0.29,2.262,0.388,2.755,1.422c0.507,1.015,0.075,2.135-1.027,2.48
				c-1.12,0.376-2.362-0.379-2.848-1.441C95.44,94.32,95.962,93.231,97.029,92.96z"/>
			<path style="fill:#F6F192;" d="M102.895,95.915c0.989-0.345,2.177,0.142,2.699,1.114c0.529,0.97,0.194,2.065-0.791,2.413
				c-0.981,0.35-2.256-0.176-2.784-1.151C101.492,97.32,101.903,96.262,102.895,95.915z"/>
			<path style="fill:#F6F192;" d="M108.609,98.519c0.827-0.376,1.883-0.073,2.399,0.695c0.515,0.758,0.303,1.706-0.516,2.076
				c-0.821,0.385-1.942,0.057-2.467-0.71C107.501,99.812,107.784,98.897,108.609,98.519z"/>
			<path style="fill:#F6F192;" d="M113.962,100.399c0.642-0.322,1.505-0.073,1.963,0.563c0.455,0.637,0.332,1.423-0.304,1.743
				c-0.635,0.316-1.546,0.05-2.007-0.58C113.154,101.487,113.32,100.714,113.962,100.399z"/>
		</g>
		<g>
			<path style="fill:#F6F192;" d="M181.808,27.918c0.028,2.771-2.22,5.173-5.056,5.425c-2.839,0.238-5.216-1.797-5.265-4.593
				c-0.057-2.8,2.258-5.296,5.134-5.518C179.506,23.001,181.775,25.157,181.808,27.918z"/>
			<path style="fill:#F6F192;" d="M171.723,37.586c0.066,2.354-1.786,4.469-4.191,4.733c-2.415,0.261-4.471-1.42-4.567-3.787
				c-0.094-2.368,1.794-4.546,4.233-4.792C169.63,33.494,171.635,35.226,171.723,37.586z"/>
			<path style="fill:#F6F192;" d="M162.916,46.359c0.114,1.929-1.398,3.671-3.35,3.943c-1.96,0.266-3.67-1.071-3.794-3.004
				c-0.133-1.956,1.398-3.742,3.375-3.997C161.131,43.053,162.806,44.429,162.916,46.359z"/>
			<path style="fill:#F6F192;" d="M155.567,54.462c0.132,1.813-1.207,3.513-3.053,3.805c-1.842,0.285-3.485-0.933-3.634-2.752
				c-0.159-1.819,1.228-3.551,3.077-3.84C153.818,51.402,155.425,52.657,155.567,54.462z"/>
			<path style="fill:#F6F192;" d="M148.599,62.243c0.164,1.546-0.952,3.005-2.519,3.289c-1.564,0.285-2.982-0.716-3.147-2.251
				c-0.17-1.533,0.977-3.035,2.547-3.326C147.05,59.677,148.435,60.702,148.599,62.243z"/>
			<path style="fill:#F6F192;" d="M142.478,69.391c0.167,1.256-0.712,2.474-1.987,2.748c-1.275,0.265-2.458-0.512-2.626-1.768
				c-0.169-1.25,0.738-2.499,2.014-2.772C141.157,67.327,142.313,68.137,142.478,69.391z"/>
			<path style="fill:#F6F192;" d="M138.321,75.472c0.244,1.513-0.772,3.024-2.307,3.401c-1.532,0.37-2.998-0.521-3.252-2.028
				c-0.252-1.518,0.807-3.081,2.345-3.458C136.644,73.004,138.066,73.956,138.321,75.472z"/>
			<path style="fill:#F6F192;" d="M133.643,81.625c0.257,1.279-0.553,2.591-1.839,2.968c-1.291,0.365-2.563-0.341-2.83-1.613
				c-0.262-1.276,0.587-2.643,1.876-3.025C132.14,79.583,133.376,80.344,133.643,81.625z"/>
			<path style="fill:#F6F192;" d="M129.666,87.213c0.264,1.039-0.34,2.147-1.375,2.499c-1.033,0.358-2.104-0.167-2.367-1.206
				c-0.264-1.034,0.371-2.195,1.404-2.552C128.366,85.593,129.404,86.176,129.666,87.213z"/>
			<path style="fill:#F6F192;" d="M126.558,92.385c0.232,0.933-0.207,2.027-1.163,2.417c-0.941,0.389-1.975-0.03-2.285-0.996
				c-0.303-0.954,0.199-2.127,1.189-2.492C125.284,90.949,126.29,91.444,126.558,92.385z"/>
			<path style="fill:#F6F192;" d="M123.815,97.438c0.289,0.791-0.173,1.681-0.887,2.09c-0.75,0.395-1.66,0.117-1.988-0.694
				c-0.367-0.823,0.064-1.799,0.896-2.17C122.656,96.292,123.531,96.651,123.815,97.438z"/>
			<path style="fill:#F6F192;" d="M121.687,102.138c0.29,0.617,0.024,1.39-0.612,1.76c-0.629,0.366-1.393,0.205-1.684-0.408
				c-0.29-0.614-0.003-1.439,0.63-1.816C120.656,101.296,121.398,101.523,121.687,102.138z"/>
		</g>
		<g>
			<path style="fill:#F6F192;" d="M248.955,99.905c-2.505,1.88-6.738,1.787-9.541-0.167c-2.81-1.942-3.123-5.109-0.603-7.082
				c2.507-2.01,6.954-1.854,9.773,0.137C251.453,94.871,251.453,98.036,248.955,99.905z"/>
			<path style="fill:#F6F192;" d="M230.933,98.9c-2.081,1.629-5.713,1.821-8.162,0.225c-2.452-1.578-2.803-4.269-0.729-5.994
				c2.08-1.718,5.801-1.896,8.262-0.246C232.766,94.536,233.009,97.226,230.933,98.9z"/>
			<path style="fill:#F6F192;" d="M214.849,98.539c-1.658,1.371-4.628,1.638-6.674,0.387c-2.036-1.229-2.379-3.418-0.724-4.884
				c1.657-1.453,4.688-1.702,6.738-0.409C216.234,94.925,216.514,97.122,214.849,98.539z"/>
			<path style="fill:#F6F192;" d="M200.703,98.989c-1.534,1.38-4.329,1.565-6.279,0.408c-1.946-1.088-2.317-3.135-0.792-4.569
				c1.523-1.41,4.372-1.577,6.328-0.432C201.912,95.551,202.231,97.604,200.703,98.989z"/>
			<path style="fill:#F6F192;" d="M187.199,99.508c-1.276,1.227-3.647,1.461-5.326,0.538c-1.674-0.92-2.025-2.658-0.755-3.877
				c1.268-1.219,3.675-1.459,5.361-0.538C188.155,96.553,188.471,98.291,187.199,99.508z"/>
			<path style="fill:#F6F192;" d="M175.033,100.139c-1.021,0.99-2.961,1.188-4.344,0.513c-1.382-0.704-1.695-2.113-0.674-3.153
				c1.012-1.066,2.972-1.305,4.367-0.525C175.777,97.728,176.059,99.143,175.033,100.139z"/>
			<path style="fill:#F6F192;" d="M165.624,101.511c-1.215,1.256-3.559,1.591-5.256,0.742c-1.698-0.853-2.106-2.56-0.895-3.815
				c1.215-1.261,3.599-1.602,5.298-0.749C166.471,98.539,166.842,100.25,165.624,101.511z"/>
			<path style="fill:#F6F192;" d="M155.654,102.422c-1.023,1.069-3.014,1.355-4.469,0.631c-1.457-0.717-1.826-2.165-0.81-3.235
				c1.016-1.069,3.032-1.355,4.496-0.638C156.325,99.905,156.667,101.35,155.654,102.422z"/>
			<path style="fill:#F6F192;" d="M146.802,103.255c-0.816,0.916-2.436,1.225-3.629,0.681c-1.195-0.538-1.512-1.713-0.699-2.627
				c0.812-0.91,2.451-1.22,3.647-0.683C147.32,101.167,147.619,102.347,146.802,103.255z"/>
			<path style="fill:#F6F192;" d="M139.085,104.469c-0.76,0.853-2.285,1.138-3.415,0.636c-1.136-0.508-1.448-1.608-0.693-2.467
				c0.751-0.862,2.293-1.145,3.428-0.644C139.536,102.501,139.837,103.607,139.085,104.469z"/>
			<path style="fill:#F6F192;" d="M131.695,105.508c-0.638,0.722-1.932,0.97-2.903,0.537c-0.969-0.426-1.247-1.367-0.615-2.084
				c0.635-0.73,1.941-0.977,2.917-0.55C132.062,103.837,132.33,104.777,131.695,105.508z"/>
			<path style="fill:#F6F192;" d="M125.037,106.416c-0.516,0.593-1.574,0.798-2.375,0.445c-0.796-0.345-1.037-1.112-0.521-1.706
				c0.515-0.594,1.579-0.792,2.384-0.444C125.322,105.062,125.551,105.823,125.037,106.416z"/>
		</g>
		<g>
			<path style="fill:#F6F192;" d="M179.155,227.08c-3.141-0.724-6.097-4.272-6.187-7.816c-0.168-3.524,2.257-5.577,5.287-4.768
				c2.995,0.873,5.565,4.076,5.846,7.465C184.334,225.213,182.423,227.809,179.155,227.08z"/>
			<path style="fill:#F6F192;" d="M168.583,211.684c-2.554-0.842-4.653-3.99-4.624-6.947c0.029-2.956,2.179-4.582,4.739-3.734
				c2.566,0.853,4.569,3.852,4.537,6.796C173.194,210.749,171.139,212.517,168.583,211.684z"/>
			<path style="fill:#F6F192;" d="M160.387,197.483c-2.052-0.785-3.63-3.413-3.491-5.831c0.143-2.406,1.949-3.68,4.003-2.889
				c2.058,0.792,3.59,3.347,3.452,5.757C164.201,196.927,162.444,198.276,160.387,197.483z"/>
			<path style="fill:#F6F192;" d="M153.372,184.935c-1.888-0.822-3.246-3.356-3.01-5.628c0.232-2.275,1.973-3.419,3.861-2.596
				c1.891,0.82,3.22,3.302,2.982,5.564C157.004,184.527,155.34,185.71,153.372,184.935z"/>
			<path style="fill:#F6F192;" d="M147.456,172.574c-1.618-0.724-2.771-2.876-2.557-4.779c0.213-1.901,1.71-2.834,3.328-2.109
				c1.62,0.722,2.752,2.832,2.54,4.743C150.552,172.326,149.075,173.298,147.456,172.574z"/>
			<path style="fill:#F6F192;" d="M142.334,161.373c-1.285-0.636-2.139-2.429-1.901-3.992c0.24-1.566,1.484-2.314,2.77-1.671
				c1.286,0.629,2.127,2.406,1.884,3.971C144.853,161.245,143.62,162.005,142.334,161.373z"/>
			<path style="fill:#F6F192;" d="M138.077,152.754c-1.57-0.793-2.608-2.975-2.305-4.86c0.299-1.88,1.82-2.745,3.386-1.955
				c1.571,0.79,2.593,2.936,2.294,4.818C141.154,152.637,139.648,153.54,138.077,152.754z"/>
			<path style="fill:#F6F192;" d="M134.178,143.405c-1.32-0.694-2.258-2.524-1.904-4.145c0.32-1.615,1.628-2.331,2.919-1.628
				c1.26,0.726,2.129,2.547,1.879,4.131C136.809,143.348,135.517,144.09,134.178,143.405z"/>
			<path style="fill:#F6F192;" d="M131.008,135.006c-1.057-0.587-1.708-2.128-1.441-3.439c0.265-1.304,1.342-1.887,2.399-1.293
				c1.058,0.588,1.698,2.115,1.436,3.421C133.134,135.006,132.065,135.594,131.008,135.006z"/>
			<path style="fill:#F6F192;" d="M128.178,127.639c-1.001-0.562-1.608-2.014-1.357-3.234c0.251-1.224,1.27-1.755,2.268-1.192
				c0.997,0.557,1.6,1.997,1.346,3.221C130.184,127.651,129.174,128.198,128.178,127.639z"/>
			<path style="fill:#F6F192;" d="M125.584,120.57c-0.853-0.48-1.37-1.71-1.152-2.744c0.22-1.033,1.086-1.478,1.932-0.99
				c0.852,0.478,1.366,1.703,1.152,2.741C127.298,120.603,126.435,121.054,125.584,120.57z"/>
			<path style="fill:#F6F192;" d="M123.273,114.209c-0.695-0.402-1.123-1.41-0.943-2.251c0.178-0.836,0.891-1.194,1.588-0.792
				c0.696,0.401,1.112,1.398,0.936,2.238C124.677,114.247,123.967,114.609,123.273,114.209z"/>
		</g>
		<g>
			<path style="fill:#F6F192;" d="M19.224,173.117c-0.005-3.086,2.727-6.208,5.963-6.881c3.245-0.674,5.737,1.329,5.635,4.321
				c-0.078,3.018-2.647,5.923-5.782,6.647C21.922,177.905,19.218,176.223,19.224,173.117z"/>
			<path style="fill:#F6F192;" d="M31.281,160.972c0.193-2.559,2.571-5.113,5.375-5.498c2.786-0.4,4.808,1.386,4.593,3.926
				c-0.243,2.532-2.541,4.936-5.278,5.382C33.235,165.221,31.105,163.544,31.281,160.972z"/>
			<path style="fill:#F6F192;" d="M42.572,150.923c0.252-2.09,2.326-4.031,4.589-4.279c2.278-0.234,3.886,1.317,3.594,3.371
				c-0.259,2.101-2.253,3.964-4.513,4.219C43.986,154.471,42.322,153.014,42.572,150.923z"/>
			<path style="fill:#F6F192;" d="M52.694,142.335c0.295-1.991,2.342-3.711,4.512-3.811c2.159-0.115,3.585,1.398,3.234,3.335
				c-0.345,1.939-2.347,3.548-4.44,3.733C53.886,145.748,52.386,144.307,52.694,142.335z"/>
			<path style="fill:#F6F192;" d="M62.827,134.74c0.366-1.639,2.176-3.007,4.002-3.03c1.827-0.021,2.977,1.321,2.613,2.955
				c-0.364,1.646-2.105,2.963-3.935,2.98C63.684,137.657,62.48,136.391,62.827,134.74z"/>
			<path style="fill:#F6F192;" d="M72.318,128.419c0.355-1.324,1.876-2.38,3.369-2.33c1.491,0.054,2.384,1.187,2.024,2.516
				c-0.358,1.325-1.831,2.343-3.32,2.293C72.898,130.844,71.959,129.748,72.318,128.419z"/>
			<path style="fill:#F6F192;" d="M79.587,123.266c0.507-1.575,2.432-2.768,4.241-2.62c1.81,0.15,2.816,1.578,2.302,3.162
				c-0.512,1.588-2.346,2.726-4.151,2.577C80.173,126.237,79.083,124.858,79.587,123.266z"/>
			<path style="fill:#F6F192;" d="M87.817,118.747c0.485-1.337,2.183-2.239,3.714-2.033c1.535,0.209,2.336,1.464,1.831,2.777
				c-0.502,1.322-2.114,2.196-3.644,1.991C88.216,121.321,87.351,120.114,87.817,118.747z"/>
			<path style="fill:#F6F192;" d="M95.342,115.179c0.444-1.074,1.794-1.875,3.07-1.589c1.251,0.248,1.864,1.299,1.397,2.344
				c-0.482,1.009-1.807,1.725-3.024,1.551C95.56,117.295,94.902,116.267,95.342,115.179z"/>
			<path style="fill:#F6F192;" d="M102.01,112.18c0.468-0.989,1.807-1.609,2.957-1.367c1.152,0.242,1.676,1.262,1.206,2.251
				c-0.468,0.995-1.756,1.589-2.901,1.342C102.126,114.165,101.547,113.168,102.01,112.18z"/>
			<path style="fill:#F6F192;" d="M108.518,109.657c0.443-0.805,1.614-1.244,2.586-0.971c0.976,0.276,1.38,1.162,0.935,1.96
				c-0.442,0.81-1.568,1.237-2.545,0.959C108.525,111.333,108.075,110.467,108.518,109.657z"/>
			<path style="fill:#F6F192;" d="M114.503,107.759c0.387-0.663,1.344-1.028,2.114-0.792c0.778,0.228,1.084,0.965,0.696,1.627
				c-0.387,0.667-1.311,1.013-2.085,0.783C114.453,109.149,114.118,108.425,114.503,107.759z"/>
		</g>
	</g>
</g>
</svg>
