<svg id="visual" viewBox="0 0 960 100" width="960" height="100" xmlns="http://www.w3.org/2000/svg" xmlns:xlink="http://www.w3.org/1999/xlink" version="1.1"><path d="M0 37L14.5 41.5C29 46 58 55 87.2 55.8C116.3 56.7 145.7 49.3 174.8 50.3C204 51.3 233 60.7 262 61.8C291 63 320 56 349 52.2C378 48.3 407 47.7 436.2 46.3C465.3 45 494.7 43 523.8 41C553 39 582 37 611 41C640 45 669 55 698 53.5C727 52 756 39 785.2 38C814.3 37 843.7 48 872.8 47.7C902 47.3 931 35.7 945.5 29.8L960 24L960 0L945.5 0C931 0 902 0 872.8 0C843.7 0 814.3 0 785.2 0C756 0 727 0 698 0C669 0 640 0 611 0C582 0 553 0 523.8 0C494.7 0 465.3 0 436.2 0C407 0 378 0 349 0C320 0 291 0 262 0C233 0 204 0 174.8 0C145.7 0 116.3 0 87.2 0C58 0 29 0 14.5 0L0 0Z" fill="#0066FF" stroke-linecap="round" stroke-linejoin="miter"></path></svg>