<svg id="visual" viewBox="0 0 960 100" width="960" height="100" xmlns="http://www.w3.org/2000/svg" xmlns:xlink="http://www.w3.org/1999/xlink" version="1.1"><path d="M0 48L16 43.7C32 39.3 64 30.7 96 31.2C128 31.7 160 41.3 192 47.2C224 53 256 55 288 52C320 49 352 41 384 41C416 41 448 49 480 53.3C512 57.7 544 58.3 576 53.7C608 49 640 39 672 44C704 49 736 69 768 67.5C800 66 832 43 864 36.8C896 30.7 928 41.3 944 46.7L960 52L960 101L944 101C928 101 896 101 864 101C832 101 800 101 768 101C736 101 704 101 672 101C640 101 608 101 576 101C544 101 512 101 480 101C448 101 416 101 384 101C352 101 320 101 288 101C256 101 224 101 192 101C160 101 128 101 96 101C64 101 32 101 16 101L0 101Z" fill="#0369a1" stroke-linecap="round" stroke-linejoin="miter"></path></svg>